<?xml version="1.0" standalone="no"?>
<!DOCTYPE svg PUBLIC "-//W3C//DTD SVG 1.1//EN" "http://www.w3.org/Graphics/SVG/1.1/DTD/svg11.dtd" >
<svg>
<metadata>
Created by FontForge 20090914 at Wed May 16 13:02:21 2018
 By www-data
&#194;&#169; Lukasz Dziedzic for FSI; PDF-x uazero;
</metadata>
<defs>
<font id="ClanPro-Book" horiz-adv-x="654" >
  <font-face 
    font-family="ClanPro"
    font-weight="400"
    font-stretch="normal"
    units-per-em="1000"
    panose-1="2 0 5 0 3 0 0 2 0 4"
    ascent="750"
    descent="-250"
    x-height="590"
    cap-height="750"
    bbox="-5.00098 -203 997 960"
    underline-thickness="53"
    underline-position="-82"
    unicode-range="U+0020-U+FB02"
  />
<missing-glyph horiz-adv-x="616" 
d="M95 750h426v-750h-426v750zM477 44v662h-338v-662h338z" />
    <glyph glyph-name=".notdef" horiz-adv-x="616" 
d="M95 750h426v-750h-426v750zM477 44v662h-338v-662h338z" />
    <glyph glyph-name="space" unicode=" " horiz-adv-x="500" 
 />
    <glyph glyph-name="space" unicode="&#xa0;" horiz-adv-x="500" 
 />
    <glyph glyph-name="exclam" unicode="!" horiz-adv-x="303" 
d="M128 191l-11 559h66l-11 -559h-44zM198 33c0 -28.667 -15.333 -43 -46 -43c-15.333 0 -26.833 3.33301 -34.5 10s-11.5 17.667 -11.5 33c0 29.333 15.333 44 46 44s46 -14.667 46 -44z" />
    <glyph glyph-name="quotedbl" unicode="&#x22;" horiz-adv-x="361" 
d="M299 772l-16 -222h-41l-10 222h67zM133 772l-16 -222h-41l-10 222h67z" />
    <glyph glyph-name="numbersign" unicode="#" horiz-adv-x="648" 
d="M194 288l30 184h-158v51h165l32 227h48l-31 -227h130l32 227h47l-32 -227h126v-51h-133l-29 -184h161v-51h-167l-34 -237h-47l33 237h-131l-33 -237h-49l33 237h-122v51h129zM243 288h131l28 184h-129z" />
    <glyph glyph-name="parenleft" unicode="(" horiz-adv-x="317" 
d="M314 797c-48 -64.667 -85.499 -134.832 -112.499 -210.499s-40.5 -159.167 -40.5 -250.5c0 -93.333 14 -177.833 42 -253.5s64.667 -144.834 110 -207.501l-54 -4c-48 56.667 -86 125 -114 205s-42 166.667 -42 260c0 97.333 13.667 183.5 41 258.5
s65.666 143.833 114.999 206.5z" />
    <glyph glyph-name="parenright" unicode=")" horiz-adv-x="317" 
d="M58 801c49.333 -62.667 87.499 -131.502 114.499 -206.502s40.5 -161.167 40.5 -258.5c0 -93.333 -13.833 -180 -41.5 -260s-65.5 -148.333 -113.5 -205l-54 4c46 62.667 82.833 131.834 110.5 207.501s41.5 160.167 41.5 253.5c0 91.333 -13.667 174.833 -41 250.5
s-64.666 145.834 -111.999 210.501z" />
    <glyph glyph-name="comma" unicode="," horiz-adv-x="242" 
d="M120 82c16.667 0 28.667 -4.50098 36 -13.501s11 -21.167 11 -36.5c0 -7.33301 -2 -18.166 -6 -32.499s-9 -29.666 -15 -45.999s-12.667 -32.833 -20 -49.5s-14.333 -31.334 -21 -44.001l-23 6l26 124c-9.33301 2.66699 -17.333 8 -24 16s-10 17 -10 27
c0 14.667 3.66699 26.5 11 35.5s19 13.5 35 13.5z" />
    <glyph glyph-name="hyphen" unicode="-" horiz-adv-x="414" 
d="M333 364v-48h-253v48h253z" />
    <glyph glyph-name="period" unicode="." horiz-adv-x="242" 
d="M168 37c0 -31.333 -15.333 -47 -46 -47c-16 0 -28 3.5 -36 10.5s-12 19.167 -12 36.5c0 30.667 16 46 48 46c30.667 0 46 -15.333 46 -46z" />
    <glyph glyph-name="slash" unicode="/" horiz-adv-x="430" 
d="M419 799l-346 -928h-52l345 928h53z" />
    <glyph glyph-name="zero" unicode="0" 
d="M589 375c0 -70.667 -5 -130.5 -15 -179.5s-25.667 -88.833 -47 -119.5s-48.5 -52.834 -81.5 -66.501s-72.5 -20.5 -118.5 -20.5s-85.667 6.83301 -119 20.5s-60.5 35.834 -81.5 66.501s-36.5 70.5 -46.5 119.5s-15 108.833 -15 179.5c0 71.333 5 131.5 15 180.5
s25.667 88.667 47 119s48.5 52.166 81.5 65.499s72.833 20 119.5 20c46 0 85.5 -6.66699 118.5 -20s60 -35.166 81 -65.499s36.5 -70 46.5 -119s15 -109.167 15 -180.5zM526 376c0 64.667 -4 118.002 -12 160.002s-20 75.167 -36 99.5s-36.5 41.166 -61.5 50.499
s-54.5 14 -88.5 14s-63.667 -4.83301 -89 -14.5s-46.333 -26.667 -63 -51s-29 -57.333 -37 -99s-12 -94.834 -12 -159.501c0 -65.333 4 -119.166 12 -161.499s20.333 -75.833 37 -100.5s37.667 -41.834 63 -51.501s55 -14.5 89 -14.5s63.5 4.83301 88.5 14.5
s45.5 26.834 61.5 51.501s28 58.167 36 100.5s12 96.166 12 161.499z" />
    <glyph glyph-name="one" unicode="1" 
d="M190 52h146v531l2 81l-2 1l-172 -117l-8 58l208 147h38v-701h141v-52h-353v52z" />
    <glyph glyph-name="two" unicode="2" 
d="M562 559c0 -40.667 -9.49902 -80.667 -28.499 -120s-45.333 -79.166 -79 -119.499s-73.834 -81.5 -120.501 -123.5l-152 -132v-3h388l-2 -61h-476v46l148 136c48.667 44 92 87.167 130 129.5s68.833 83.5 92.5 123.5s35.5 79.333 35.5 118c0 20 -3.5 38.833 -10.5 56.5
s-17.833 33 -32.5 46s-33.5 23.333 -56.5 31s-50.833 11.5 -83.5 11.5c-38 0 -74.167 -7.33301 -108.5 -22s-64.833 -33.334 -91.5 -56.001l-19 54c28 24 61.5 44 100.5 60s81.5 24 127.5 24c76.667 0 135.5 -17.5 176.5 -52.5s61.5 -83.833 61.5 -146.5z" />
    <glyph glyph-name="three" unicode="3" 
d="M576 223c0 -34.667 -5.16602 -66.1689 -15.499 -94.502s-26.333 -52.666 -48 -72.999s-49.167 -36 -82.5 -47s-73 -16.5 -119 -16.5c-52 0 -95.833 6 -131.5 18s-66.5 26.333 -92.5 43l15 55c29.333 -19.333 60.666 -34 93.999 -44s71.333 -15 114 -15
c35.333 0 65.833 4.5 91.5 13.5s47 21.333 64 37s29.5 34.334 37.5 56.001s12 45.5 12 71.5c0 52.667 -20.167 90.834 -60.5 114.501s-107.166 35.5 -200.499 35.5v50c86.667 0 148.5 12.5 185.5 37.5s55.5 60.833 55.5 107.5c0 44 -16.167 76.167 -48.5 96.5
s-75.833 30.5 -130.5 30.5c-42 0 -79.333 -6.83301 -112 -20.5s-63 -32.167 -91 -55.5l-19 51c25.333 23.333 57.166 43.166 95.499 59.499s81.5 24.5 129.5 24.5c73.333 0 130.833 -15.333 172.5 -46s62.5 -76 62.5 -136c0 -24.667 -3.5 -46.334 -10.5 -65.001
s-16.833 -35 -29.5 -49s-27.667 -25.667 -45 -35s-36 -16.666 -56 -21.999v-2c52.667 -10.667 93 -30.167 121 -58.5s42 -68.833 42 -121.5z" />
    <glyph glyph-name="four" unicode="4" 
d="M494 175v-175h-59v175h-355l-6 43l340 532h80v-517h104l-3 -58h-101zM439 616l3 81l-2 1l-43 -70l-206 -327l-44 -65l1 -3h288z" />
    <glyph glyph-name="five" unicode="5" 
d="M565 254c0 -86.667 -20.833 -152.003 -62.5 -196.003s-105.167 -66 -190.5 -66c-44.667 0 -84.167 5.33301 -118.5 16s-65.5 25.667 -93.5 45l14 57c28.667 -19.333 58 -34.333 88 -45s65 -16 105 -16c130.667 0 196 66.667 196 200
c0 58.667 -15.167 100.834 -45.5 126.501s-77.833 38.5 -142.5 38.5c-36.667 0 -71.167 -4.16699 -103.5 -12.5s-59.833 -19.166 -82.5 -32.499l-27 25l30 356h398l3 -60h-352l-22 -254c25.333 11.333 53 19.833 83 25.5s59.333 8.5 88 8.5
c78.667 0 137.5 -17.667 176.5 -53s58.5 -89.666 58.5 -162.999z" />
    <glyph glyph-name="six" unicode="6" 
d="M576 255c0 -87.333 -20.5 -153.002 -61.5 -197.002s-102.833 -66 -185.5 -66c-42 0 -78.833 6 -110.5 18s-58.334 32 -80.001 60s-38 64.833 -49 110.5s-16.5 101.834 -16.5 168.501c0 140.667 25.833 244 77.5 310s126.834 99 225.501 99c30 0 57.5 -2.16699 82.5 -6.5
s51.167 -12.166 78.5 -23.499l-7 -58c-24 9.33301 -47.5 16.333 -70.5 21s-48.5 7 -76.5 7c-79.333 0 -139.833 -24.167 -181.5 -72.5s-64.5 -125.5 -68.5 -231.5l3 -2c28 25.333 60.167 45 96.5 59s73.5 21 111.5 21c80.667 0 139.5 -17.667 176.5 -53s55.5 -90 55.5 -164z
M513 255.998c0 56.667 -14.3359 98.167 -43.0029 124.5s-74.334 39.5 -137.001 39.5c-16.667 0 -34.167 -2 -52.5 -6s-36.333 -9.83301 -54 -17.5s-34.167 -16.834 -49.5 -27.501s-28.666 -22.667 -39.999 -36c0.666992 -52 4.83398 -96 12.501 -132
s19.334 -65.167 35.001 -87.5s35.334 -38.666 59.001 -48.999s52.167 -15.5 85.5 -15.5c122.667 0 184 69 184 207z" />
    <glyph glyph-name="seven" unicode="7" 
d="M588 694l-336 -694h-74l346 686h-447l3 64h508v-56z" />
    <glyph glyph-name="eight" unicode="8" 
d="M72 201c0 47.333 14.334 87.499 43.001 120.499s65.667 58.5 111 76.5v3c-18 7.33301 -34.5 15.833 -49.5 25.5s-28 21.334 -39 35.001s-19.667 29.5 -26 47.5s-9.5 39 -9.5 63c0 58 17.5 103.5 52.5 136.5s92.833 49.5 173.5 49.5c77.333 0 134.333 -15.667 171 -47
s55 -77.666 55 -138.999c0 -40.667 -11 -76.334 -33 -107.001s-54 -55 -96 -73v-2c21.333 -7.33301 41.5 -16 60.5 -26s35.667 -22.333 50 -37s25.666 -32.167 33.999 -52.5s12.5 -44.833 12.5 -73.5c0 -70.667 -21.333 -123.334 -64 -158.001s-106 -52 -190 -52
c-88.667 0 -153.5 17.333 -194.5 52s-61.5 87.334 -61.5 158.001zM521.001 197.999c0 30 -6.83301 54.5 -20.5 73.5s-31.667 34.833 -54 47.5s-47.333 23 -75 31s-55.5 16.667 -83.5 26c-21.333 -9.33301 -41.5 -19.5 -60.5 -30.5s-35.5 -23.5 -49.5 -37.5
s-25 -29.833 -33 -47.5s-12 -37.5 -12 -59.5c0 -51.333 15 -90 45 -116s80.667 -39 152 -39c58 0 104.333 12 139 36s52 62.667 52 116zM160.001 569.999c0 -26.667 5.66699 -48.499 17 -65.499s26.5 -31.333 45.5 -43s40.667 -21.334 65 -29.001s49.5 -15.167 75.5 -22.5
c47.333 19.333 81.5 41.5 102.5 66.5s31.5 55.167 31.5 90.5c0 45.333 -13.667 79.5 -41 102.5s-70.333 34.5 -129 34.5c-57.333 0 -99.5 -11.5 -126.5 -34.5s-40.5 -56.167 -40.5 -99.5z" />
    <glyph glyph-name="nine" unicode="9" 
d="M575 417c0 -76.667 -6.16602 -141.999 -18.499 -195.999s-30.5 -98 -54.5 -132s-54 -58.667 -90 -74s-78 -23 -126 -23c-32 0 -60.667 2.5 -86 7.5s-52 13.5 -80 25.5l10 56c24.667 -10.667 48.667 -18.5 72 -23.5s49.333 -7.5 78 -7.5c38.667 0 72.5 6.16699 101.5 18.5
s53.167 32 72.5 59s34 61.5 44 103.5s16 93 18 153l-2 1c-27.333 -25.333 -57.833 -43.833 -91.5 -55.5s-70.167 -17.5 -109.5 -17.5c-42 0 -78.333 5.16699 -109 15.5s-55.834 25 -75.501 44s-34.167 42.167 -43.5 69.5s-14 57.666 -14 90.999
c0 70 19.667 125.167 59 165.5s100.333 60.5 183 60.5s147 -28.167 193 -84.5s69 -141.833 69 -256.5zM513.001 443.001c-0.666992 46 -5.83203 85.3311 -15.499 117.998s-23.167 59.334 -40.5 80.001s-38.333 35.834 -63 45.501s-52 14.5 -82 14.5
c-60 0 -105 -14.167 -135 -42.5s-45 -69.5 -45 -123.5c0 -52.667 15.167 -94 45.5 -124s78.166 -45 143.499 -45c38 0 73.5 5.83301 106.5 17.5s61.5 31.5 85.5 59.5z" />
    <glyph glyph-name="A" unicode="A" horiz-adv-x="698" 
d="M528 198h-361l-71 -198h-71l285 750h78l285 -750h-74zM322 624l-133 -367h318l-131 367l-25 77h-3z" />
    <glyph glyph-name="B" unicode="B" horiz-adv-x="684" 
d="M612 210c0 -33.333 -4.16602 -63.001 -12.499 -89.001s-21.5 -48 -39.5 -66s-41.333 -31.667 -70 -41s-63.334 -14 -104.001 -14h-275v750h260c70 0 122.333 -15 157 -45s52 -76.333 52 -139c0 -49.333 -10.333 -87.333 -31 -114s-47 -44.667 -79 -54v-2
c44 -9.33301 78.667 -28.666 104 -57.999s38 -72 38 -128zM547.001 214.999c0 51.333 -13.5 89 -40.5 113s-68.167 36 -123.5 36h-209v-306h213c50 0 89.167 11.667 117.5 35s42.5 64 42.5 122zM517.001 554.999c0 48.667 -12 83.5 -36 104.5s-61.333 31.5 -112 31.5h-194
v-273h202c93.333 0 140 45.667 140 137z" />
    <glyph glyph-name="C" unicode="C" horiz-adv-x="611" 
d="M552 665c-20.667 9.33301 -45.168 17.3311 -73.501 23.998s-58.166 10 -89.499 10c-42.667 0 -79.834 -5.33301 -111.501 -16s-57.834 -28.334 -78.501 -53.001s-36 -57.167 -46 -97.5s-15 -90.166 -15 -149.499c0 -63.333 5.16699 -116.333 15.5 -159s26 -77 47 -103
s47.333 -44.5 79 -55.5s69.167 -16.5 112.5 -16.5c32 0 61.333 3.5 88 10.5s51.334 16.5 74.001 28.5l11 -57c-22.667 -12 -50 -22.5 -82 -31.5s-65 -13.5 -99 -13.5c-54.667 0 -101.667 7.66699 -141 23s-71.833 39.333 -97.5 72s-44.667 73.834 -57 123.501
s-18.5 109.167 -18.5 178.5c0 66 6.16699 122.833 18.5 170.5s31.5 87 57.5 118s58.833 53.833 98.5 68.5s86.834 22 141.501 22c16 0 32.167 -1 48.5 -3s32.333 -4.66699 48 -8s30.167 -7.16602 43.5 -11.499s25 -8.83301 35 -13.5z" />
    <glyph glyph-name="D" unicode="D" horiz-adv-x="740" 
d="M671 378c0 -68.667 -6.33496 -127 -19.002 -175s-32 -87 -58 -117s-58.667 -51.833 -98 -65.5s-85.666 -20.5 -138.999 -20.5h-246v750h245c55.333 0 102.833 -6.83301 142.5 -20.5s72.334 -35.5 98.001 -65.5s44.5 -68.5 56.5 -115.5s18 -103.833 18 -170.5z
M601.998 378c0 59.333 -4.83301 108.665 -14.5 147.998s-24.5 70.833 -44.5 94.5s-45.667 40.5 -77 50.5s-68.666 15 -111.999 15h-177v-623h178c41.333 0 77.5 4.83301 108.5 14.5s56.667 26.334 77 50.001s35.666 55.834 45.999 96.501s15.5 92 15.5 154z" />
    <glyph glyph-name="E" unicode="E" horiz-adv-x="626" 
d="M574 62l-3 -62h-460v750h442l3 -62h-380v-267h329v-56h-329v-303h398z" />
    <glyph glyph-name="F" unicode="F" horiz-adv-x="595" 
d="M177 686v-271h318v-60h-318v-355h-66v750h442l2 -64h-378z" />
    <glyph glyph-name="G" unicode="G" horiz-adv-x="682" 
d="M611 30c-26.667 -13.333 -58.668 -24 -96.001 -32s-76.666 -12 -117.999 -12c-56.667 0 -105.5 7.33301 -146.5 22s-74.833 37.5 -101.5 68.5s-46.5 70.833 -59.5 119.5s-19.5 107.334 -19.5 176.001c0 70 6.5 129.667 19.5 179s33 89.666 60 120.999
s61.167 54.166 102.5 68.499s90.333 21.5 147 21.5c35.333 0 70.166 -3.33301 104.499 -10s64.166 -15.667 89.499 -27l-9 -61c-25.333 11.333 -53.166 20.333 -83.499 27s-63.166 10 -98.499 10c-44.667 0 -83.5 -5.33301 -116.5 -16s-60.5 -28.5 -82.5 -53.5
s-38.333 -58.667 -49 -101s-16 -94.833 -16 -157.5c0 -60 4.83301 -110.5 14.5 -151.5s25 -74.167 46 -99.5s47.667 -43.666 80 -54.999s71.5 -17 117.5 -17c59.333 0 111.333 9.33301 156 28v316h59v-364z" />
    <glyph glyph-name="H" unicode="H" horiz-adv-x="759" 
d="M582 0v361h-405v-361h-66v750h66v-327h405v327h66v-750h-66z" />
    <glyph glyph-name="I" unicode="I" horiz-adv-x="316" 
d="M125 750h66v-750h-66v750z" />
    <glyph glyph-name="J" unicode="J" horiz-adv-x="549" 
d="M438 239c0 -83.333 -21.168 -146.334 -63.501 -189.001s-102.833 -64 -181.5 -64c-33.333 0 -62.666 4.16699 -87.999 12.5s-47 19.5 -65 33.5l7 61c17.333 -14 37.5 -25 60.5 -33s49.167 -12 78.5 -12c58.667 0 104.167 15.833 136.5 47.5s48.5 79.834 48.5 144.501v510
h67v-511z" />
    <glyph glyph-name="K" unicode="K" horiz-adv-x="694" 
d="M574 0l-272 363h-125v-363h-66v750h66v-328h126l258 328h82l-280 -354l297 -396h-86z" />
    <glyph glyph-name="L" unicode="L" horiz-adv-x="576" 
d="M549 64l-3 -64h-435v750h66v-686h372z" />
    <glyph glyph-name="M" unicode="M" horiz-adv-x="911" 
d="M189 750l237 -583l29 -75h3l28 75l237 583h77v-750h-59v561l2 81l-3 1l-29 -76l-231 -567h-50l-231 564l-29 76l-2 -1l1 -81v-558h-58v750h78z" />
    <glyph glyph-name="N" unicode="N" horiz-adv-x="764" 
d="M604 0l-388 580l-44 68l-2 -1l1 -81v-566h-60v750h65l375 -566l44 -68l2 1l-2 80l-1 553h59v-750h-49z" />
    <glyph glyph-name="O" unicode="O" horiz-adv-x="737" 
d="M668 375c0 -70 -5.33301 -129.498 -16 -178.498s-27.834 -89.167 -51.501 -120.5s-54.5 -54.166 -92.5 -68.499s-84.333 -21.5 -139 -21.5c-54 0 -100 7.16699 -138 21.5s-68.833 37.166 -92.5 68.499s-41 71.666 -52 120.999s-16.5 108.666 -16.5 177.999
s5.33301 128.5 16 177.5s28 89 52 120s55 53.667 93 68s84 21.5 138 21.5c54.667 0 101 -7.16699 139 -21.5s68.833 -37 92.5 -68s40.834 -71 51.501 -120s16 -108.167 16 -177.5zM600 375.002c0 63.333 -4.33691 115.833 -13.0039 157.5s-22.167 74.834 -40.5 99.501
s-42.166 42 -71.499 52s-64.666 15 -105.999 15s-76.666 -5 -105.999 -15s-53.166 -27.333 -71.499 -52s-31.833 -57.834 -40.5 -99.501s-13 -94.167 -13 -157.5s4.33301 -115.833 13 -157.5s22.334 -74.834 41.001 -99.501s42.667 -42.167 72 -52.5
s64.666 -15.5 105.999 -15.5s76.5 5.16699 105.5 15.5s52.833 27.833 71.5 52.5s32.167 57.834 40.5 99.501s12.5 94.167 12.5 157.5z" />
    <glyph glyph-name="P" unicode="P" horiz-adv-x="646" 
d="M594 527c0 -75.333 -19.167 -131.5 -57.5 -168.5s-100.5 -55.5 -186.5 -55.5h-173v-303h-66v750h239c85.333 0 147.333 -17.5 186 -52.5s58 -91.833 58 -170.5zM527 527c0 60 -14.5 102.333 -43.5 127s-73.5 37 -133.5 37h-173v-331h173c29.333 0 55 2.66699 77 8
s40.5 14.5 55.5 27.5s26.167 30.167 33.5 51.5s11 48 11 80z" />
    <glyph glyph-name="Q" unicode="Q" horiz-adv-x="737" 
d="M668 375c0 -63.333 -4.33594 -118.164 -13.0029 -164.497s-22.667 -85 -42 -116s-44.333 -55 -75 -72s-67.667 -27.5 -111 -31.5l-1 -2l67 -46l109 -76l-93 -21l-159 140c-50.667 2 -93.667 10.667 -129 26s-64.166 38.666 -86.499 69.999
s-38.666 71.166 -48.999 119.499s-15.5 106.166 -15.5 173.499c0 69.333 5.33301 128.5 16 177.5s28 89 52 120s55 53.667 93 68s84 21.5 138 21.5c54.667 0 101 -7.16699 139 -21.5s68.833 -37 92.5 -68s40.834 -71 51.501 -120s16 -108.167 16 -177.5zM599.997 375.002
c0 63.333 -4.33691 115.833 -13.0039 157.5s-22.167 74.834 -40.5 99.501s-42.166 42 -71.499 52s-64.666 15 -105.999 15s-76.666 -5 -105.999 -15s-53.166 -27.333 -71.499 -52s-31.833 -57.834 -40.5 -99.501s-13 -94.167 -13 -157.5s4.33301 -115.833 13 -157.5
s22.334 -74.834 41.001 -99.501s42.667 -42.167 72 -52.5s64.666 -15.5 105.999 -15.5s76.5 5.16699 105.5 15.5s52.833 27.833 71.5 52.5s32.167 57.834 40.5 99.501s12.5 94.167 12.5 157.5z" />
    <glyph glyph-name="R" unicode="R" horiz-adv-x="652" 
d="M574 547c0 -61.333 -13.667 -108.167 -41 -140.5s-67 -51.5 -119 -57.5l209 -349h-80l-192 337h-174v-337h-66v750h243c76 0 131.667 -16.667 167 -50s53 -84.333 53 -153zM506 543.999c0 52.667 -12.167 90.332 -36.5 112.999s-62.833 34 -115.5 34h-177v-300h171
c54.667 0 94.667 11.833 120 35.5s38 62.834 38 117.501z" />
    <glyph glyph-name="S" unicode="S" horiz-adv-x="563" 
d="M515 207c0 -68.667 -20.499 -122.667 -61.499 -162s-101.833 -59 -182.5 -59c-43.333 0 -82.5 5.33301 -117.5 16s-66.833 24.667 -95.5 42l12 62c29.333 -19.333 60.166 -33.833 92.499 -43.5s68.5 -14.5 108.5 -14.5c60 0 105 13.667 135 41s45 65.333 45 114
c0 33.333 -9.5 59.666 -28.5 78.999s-42.833 35.5 -71.5 48.5s-59.5 24.667 -92.5 35s-63.833 23.333 -92.5 39s-52.5 35.667 -71.5 60s-28.5 57.166 -28.5 98.499c0 28 4.66699 54.167 14 78.5s23.5 45.5 42.5 63.5s43.167 32 72.5 42s64 15 104 15
c36.667 0 71.167 -3.5 103.5 -10.5s61.833 -16.833 88.5 -29.5l-12 -59c-28.667 12 -57.167 21.333 -85.5 28s-58.833 10 -91.5 10c-31.333 0 -57.833 -3.66699 -79.5 -11s-39.5 -17.166 -53.5 -29.499s-24.167 -26.5 -30.5 -42.5s-9.5 -33 -9.5 -51c0 -32 9.5 -57 28.5 -75
s42.833 -33.167 71.5 -45.5s59.667 -23.666 93 -33.999s64.333 -23.5 93 -39.5s52.5 -36.833 71.5 -62.5s28.5 -60.167 28.5 -103.5z" />
    <glyph glyph-name="T" unicode="T" horiz-adv-x="575" 
d="M320 686v-686h-66v686h-235l2 64h534l1 -64h-236z" />
    <glyph glyph-name="U" unicode="U" horiz-adv-x="741" 
d="M647 271c0 -50 -6.16895 -93 -18.502 -129s-30.333 -65.5 -54 -88.5s-52.667 -40 -87 -51s-73.166 -16.5 -116.499 -16.5c-44 0 -83.167 5.5 -117.5 16.5s-63.333 28 -87 51s-41.667 52.5 -54 88.5s-18.5 79 -18.5 129v479h66v-479c0 -77.333 17.5 -133.5 52.5 -168.5
s87.833 -52.5 158.5 -52.5s123.334 17.667 158.001 53s52 91.333 52 168v479h66v-479z" />
    <glyph glyph-name="V" unicode="V" horiz-adv-x="683" 
d="M653 750l-273 -750h-77l-273 750h73l214 -610l25 -77h3l25 76l214 611h69z" />
    <glyph glyph-name="W" unicode="W" horiz-adv-x="996" 
d="M537 750l154 -605l19 -79h3l16 79l140 605h66l-183 -750h-84l-151 606l-17 80h-3l-18 -80l-152 -606h-82l-184 750h68l140 -606l17 -79h3l18 79l154 606h76z" />
    <glyph glyph-name="X" unicode="X" horiz-adv-x="689" 
d="M392 390l250 -390h-78l-221 351l-216 -351h-79l245 389l-236 361h81l205 -323l203 323h78z" />
    <glyph glyph-name="Y" unicode="Y" horiz-adv-x="656" 
d="M107 750l186 -351l36 -72h3l35 72l185 351h74l-263 -487v-263h-67v263l-266 487h77z" />
    <glyph glyph-name="Z" unicode="Z" horiz-adv-x="616" 
d="M55 0v45l376 575l45 65l-1 2h-407l3 63h485v-52l-373 -568l-45 -64l1 -3h418l-3 -63h-499z" />
    <glyph glyph-name="bracketleft" unicode="[" horiz-adv-x="312" 
d="M103 800h206v-49h-150v-829h150v-48h-206v926z" />
    <glyph glyph-name="backslash" unicode="\" horiz-adv-x="430" 
d="M74 799l345 -928h-52l-346 928h53z" />
    <glyph glyph-name="bracketright" unicode="]" horiz-adv-x="313" 
d="M209 -126h-206v47h151v830h-151v49h206v-926z" />
    <glyph glyph-name="a" unicode="a" horiz-adv-x="568" 
d="M432 83l-3.00098 1.00098c-16 -28 -40.333 -50.5 -73 -67.5s-69.667 -25.5 -111 -25.5c-26.667 0 -51.167 3.5 -73.5 10.5s-41.5 17.833 -57.5 32.5s-28.333 33.667 -37 57s-13 51.666 -13 84.999c0 56.667 17.333 100.167 52 130.5s88.334 45.5 161.001 45.5
c26.667 0 52.834 -2.5 78.501 -7.5s48.5 -11.167 68.5 -18.5v73c0 56 -12.167 94.667 -36.5 116s-62.5 32 -114.5 32c-30.667 0 -59.834 -2.83301 -87.501 -8.5s-54.167 -15.167 -79.5 -28.5l-7 53c56 26 117.333 39 184 39c36 0 66.833 -3.83301 92.5 -11.5
s46.5 -20 62.5 -37s27.833 -39 35.5 -66s11.5 -59.5 11.5 -97.5v-390h-46zM423.999 278.001c-7.33301 5.33301 -23.168 11.332 -47.501 17.999s-54.5 10 -90.5 10c-57.333 0 -99 -11.167 -125 -33.5s-39 -54.166 -39 -95.499c0 -25.333 3.5 -46.5 10.5 -63.5
s16.833 -30.667 29.5 -41s27.334 -17.833 44.001 -22.5s35 -7 55 -7c21.333 0 41.833 3.5 61.5 10.5s37 16 52 27s27 23.5 36 37.5s13.5 28 13.5 42v118z" />
    <glyph glyph-name="b" unicode="b" horiz-adv-x="628" 
d="M571 296c0 -56 -5.16797 -103.5 -15.501 -142.5s-25.5 -70.667 -45.5 -95s-44.5 -42 -73.5 -53s-61.833 -16.5 -98.5 -16.5c-38 0 -73 7 -105 21s-57.667 34 -77 60l-3 -1l-12 -69h-40v797l61 4v-196l-1 -80l2 -1c21.333 25.333 47.666 44.5 78.999 57.5
s65.666 19.5 102.999 19.5c34.667 0 65.834 -5.16699 93.501 -15.5s51.334 -27.333 71.001 -51s34.834 -55 45.501 -94s16 -87.167 16 -144.5zM508.999 295c0 49.333 -4 90.167 -12 122.5s-19.833 57.833 -35.5 76.5s-34.667 31.667 -57 39s-47.5 11 -75.5 11
c-36 0 -68.5 -7.33301 -97.5 -22s-52.167 -35 -69.5 -61v-334c13.333 -22.667 34.166 -42.667 62.499 -60s63.833 -26 106.5 -26c26 0 50 3.83301 72 11.5s40.833 21 56.5 40s27.834 45 36.501 78s13 74.5 13 124.5z" />
    <glyph glyph-name="c" unicode="c" horiz-adv-x="501" 
d="M442 511c-18.667 9.33301 -39.168 16.834 -61.501 22.501s-45.166 8.5 -68.499 8.5c-34.667 0 -64.167 -4.5 -88.5 -13.5s-44.166 -23.333 -59.499 -43s-26.5 -44.667 -33.5 -75s-10.5 -66.5 -10.5 -108.5c0 -48 4 -88.333 12 -121s20 -59.334 36 -80.001
s35.833 -35.5 59.5 -44.5s51.167 -13.5 82.5 -13.5c25.333 0 49.666 3.5 72.999 10.5s44.333 17.167 63 30.5l6 -53c-17.333 -13.333 -39.5 -24 -66.5 -32s-55.833 -12 -86.5 -12c-81.333 0 -142 24.667 -182 74s-60 129.666 -60 240.999c0 100.667 19.333 175.5 58 224.5
s100.334 73.5 185.001 73.5c28 0 54.667 -3.16699 80 -9.5s47.666 -14.166 66.999 -23.499z" />
    <glyph glyph-name="d" unicode="d" horiz-adv-x="624" 
d="M481 0l-9.99902 69l-3 1c-37.333 -54.667 -98.333 -82 -183 -82c-82 0 -140.5 24.833 -175.5 74.5s-52.5 127.167 -52.5 232.5c0 102 18 178.333 54 229s94.333 76 175 76c36 0 69.667 -6.5 101 -19.5s57.666 -32.167 78.999 -57.5l2 1l-2 80v191l61 5v-800h-46z
M466.001 461c-14.667 24.667 -36.335 44.332 -65.002 58.999s-62 22 -100 22c-33.333 0 -61.5 -4.66699 -84.5 -14s-41.667 -24 -56 -44s-24.833 -45.833 -31.5 -77.5s-10 -69.5 -10 -113.5c0 -45.333 3.16699 -84 9.5 -116s16.5 -58.167 30.5 -78.5
s32.5 -35.166 55.5 -44.499s51.5 -14 85.5 -14c24.667 0 46.334 2.66699 65.001 8s34.667 12.333 48 21s24.333 18 33 28s15.334 19.667 20.001 29v335z" />
    <glyph glyph-name="e" unicode="e" horiz-adv-x="573" 
d="M320 -12c-47.333 0 -87.5 6.33496 -120.5 19.002s-60.167 32.334 -81.5 59.001s-36.833 60.5 -46.5 101.5s-14.5 90.167 -14.5 147.5c0 93.333 19.5 164.166 58.5 212.499s97.833 72.5 176.5 72.5c33.333 0 63.833 -5.16699 91.5 -15.5s51.5 -26.5 71.5 -48.5
s35.5 -50.167 46.5 -84.5s16.5 -75.5 16.5 -123.5c0 -4.66699 -0.166992 -9.83398 -0.5 -15.501s-0.833008 -10.5 -1.5 -14.5h-397c0.666992 -47.333 5.16699 -87.166 13.5 -119.499s21 -58.333 38 -78s38.333 -33.834 64 -42.501s56.167 -13 91.5 -13
c31.333 0 60 3.66699 86 11s51.667 17.666 77 30.999l8 -53c-25.333 -14.667 -52.5 -26 -81.5 -34s-60.833 -12 -95.5 -12zM462 341.002c-0.666992 37.333 -5.33301 69.001 -14 95.001s-20.5 47.167 -35.5 63.5s-32.667 28.166 -53 35.499s-42.833 11 -67.5 11
c-58.667 0 -101.5 -17 -128.5 -51s-42.167 -85.333 -45.5 -154h344z" />
    <glyph glyph-name="f" unicode="f" horiz-adv-x="403" 
d="M134 0l-0.000976562 541.997h-95v48h95v29c0 26 3.5 49.833 10.5 71.5s18.167 40.334 33.5 56.001s34.833 27.667 58.5 36s52.167 12.5 85.5 12.5c14.667 0 29.667 -1.16699 45 -3.5s28 -5.16602 38 -8.49902l-5 -43c-10 2.66699 -20.833 4.83398 -32.5 6.50098
s-24.167 2.5 -37.5 2.5c-47.333 0 -81.666 -11.5 -102.999 -34.5s-32 -55.167 -32 -96.5v-28h166v-48h-166v-542h-61z" />
    <glyph glyph-name="g" unicode="g" horiz-adv-x="565" 
d="M281 257c-14 0 -28.3311 0.833008 -42.998 2.5s-28.667 4.5 -42 8.5c-40.667 -9.33301 -61 -27.333 -61 -54c0 -24.667 19.333 -40 58 -46l145 -15c36 -4 66.167 -9.66699 90.5 -17s43.666 -16.666 57.999 -27.999s24.5 -24.666 30.5 -39.999s9 -32.666 9 -51.999
c0 -26 -4 -49.5 -12 -70.5s-21.333 -38.833 -40 -53.5s-43.334 -26 -74.001 -34s-68.334 -12 -113.001 -12c-77.333 0 -133.333 14.167 -168 42.5s-52 66.166 -52 113.499c0 22.667 5.5 44.5 16.5 65.5s27.167 39.5 48.5 55.5c-15.333 6.66699 -28.166 16.5 -38.499 29.5
s-15.5 29.5 -15.5 49.5c0 18 6.5 34.667 19.5 50s31.167 26.666 54.5 33.999l1 2c-21.333 11.333 -38.5 28.166 -51.5 50.499s-19.5 51.833 -19.5 88.5c0 55.333 15.333 98 46 128s81.667 45 153 45c25.333 0 50.833 -3 76.5 -9s48.167 -16.667 67.5 -32l95 43l14 -31
l-76 -51c6.66699 -12 11.834 -25.5 15.501 -40.5s5.5 -32.167 5.5 -51.5c0 -28 -3.33301 -52.5 -10 -73.5s-17.834 -38.833 -33.501 -53.5s-36.167 -25.667 -61.5 -33s-56.333 -11 -93 -11zM185.002 112c-21.333 -13.333 -37.334 -29.3359 -48.001 -48.0029s-16 -37 -16 -55
c0 -35.333 12.833 -62.833 38.5 -82.5s67.5 -29.5 125.5 -29.5c36.667 0 66.834 2.66699 90.501 8s42.5 12.833 56.5 22.5s23.667 21.334 29 35.001s8 28.834 8 45.501c0 12.667 -2 24 -6 34s-11.167 18.667 -21.5 26s-24.5 13.333 -42.5 18s-41.333 8.33398 -70 11.001z
M281.001 548.997c-51.333 0 -87.501 -10.166 -108.501 -30.499s-31.5 -51.166 -31.5 -92.499c0 -24.667 3.5 -44.834 10.5 -60.501s16.833 -28 29.5 -37s27.334 -15.167 44.001 -18.5s35 -5 55 -5c54 0 91 10.167 111 30.5s30 50.5 30 90.5
c0 45.333 -11.167 77.166 -33.5 95.499s-57.833 27.5 -106.5 27.5z" />
    <glyph glyph-name="h" unicode="h" horiz-adv-x="622" 
d="M477 0l0.000976562 399.001c0 46 -12.5 81.333 -37.5 106s-63.833 37 -116.5 37c-36.667 0 -69.334 -7.83301 -98.001 -23.5s-49.667 -34.834 -63 -57.501v-461h-61v795l61 5v-194l-1 -80l2 -1c20.667 24.667 46.167 43.5 76.5 56.5s63.5 19.5 99.5 19.5
c65.333 0 114.833 -17.167 148.5 -51.5s50.5 -84.5 50.5 -150.5v-399h-61z" />
    <glyph glyph-name="i" unicode="i" horiz-adv-x="308" 
d="M123 0v587l61 5v-592h-61zM201 753c0 -28 -15.667 -42 -47 -42c-15.333 0 -27 3 -35 9s-12 17 -12 33c0 28 15.667 42 47 42s47 -14 47 -42z" />
    <glyph glyph-name="j" unicode="j" horiz-adv-x="305" 
d="M182 -17c0 -51.333 -11.668 -86.999 -35.001 -106.999s-53.333 -30 -90 -30c-10 0 -20.667 1 -32 3s-21.333 4.66699 -30 8l5 48c6.66699 -2.66699 13.834 -4.83398 21.501 -6.50098s15.167 -2.5 22.5 -2.5c23.333 0 42 6.83301 56 20.5s21 36.167 21 67.5v603l61 5v-609
zM197.999 755.001c0 -28 -15.667 -42 -47 -42c-15.333 0 -27 3 -35 9s-12 17 -12 33c0 28 15.667 42 47 42s47 -14 47 -42z" />
    <glyph glyph-name="k" unicode="k" horiz-adv-x="573" 
d="M162 346h94l206 245h78l-229 -270l239 -321h-77l-217 292h-94v-292h-61v796l61 4v-454z" />
    <glyph glyph-name="l" unicode="l" horiz-adv-x="296" 
d="M118 0v796l60 4v-800h-60z" />
    <glyph glyph-name="m" unicode="m" horiz-adv-x="914" 
d="M770 0l-0.00390625 400.999c0 48 -12.833 83.333 -38.5 106s-60.5 34 -104.5 34c-17.333 0 -34.166 -2.66699 -50.499 -8s-30.666 -13.333 -42.999 -24s-22.166 -24 -29.499 -40s-11 -34.333 -11 -55v-414h-60v414c0 22.667 -3.5 42.167 -10.5 58.5
s-16.667 29.5 -29 39.5s-26.666 17.333 -42.999 22s-33.5 7 -51.5 7c-28 0 -55.5 -7.16699 -82.5 -21.5s-47.5 -33.5 -61.5 -57.5v-462h-60v589l43 4l12 -72h3c16.667 23.333 38.834 42 66.501 56s57.5 21 89.5 21c84.667 0 139 -32.667 163 -98h3
c13.333 32.667 34.666 57.334 63.999 74.001s63.333 25 102 25c56 0 101.5 -16 136.5 -48s52.5 -81.667 52.5 -149v-402h-60z" />
    <glyph glyph-name="n" unicode="n" horiz-adv-x="616" 
d="M472 0l-0.000976562 397.999c0 50.667 -13.5 87.334 -40.5 110.001s-65.5 34 -115.5 34c-14.667 0 -29.667 -1.66699 -45 -5s-30.333 -8.5 -45 -15.5s-28.167 -15.5 -40.5 -25.5s-22.5 -21.333 -30.5 -34v-462h-60v589l43 4l11 -71h3
c20 24.667 45.833 43.834 77.5 57.501s65.5 20.5 101.5 20.5c62.667 0 111.834 -16.333 147.501 -49s53.5 -83.334 53.5 -152.001v-399h-60z" />
    <glyph glyph-name="o" unicode="o" horiz-adv-x="609" 
d="M552 294c0 -55.333 -4.66504 -102.5 -13.998 -141.5s-24 -70.667 -44 -95s-45.5 -42.166 -76.5 -53.499s-68.167 -17 -111.5 -17s-80.5 5.66699 -111.5 17s-56.833 29.166 -77.5 53.499s-35.834 56 -45.501 95s-14.5 86.167 -14.5 141.5c0 54.667 5 101.334 15 140.001
s25.167 70.334 45.5 95.001s46.166 42.667 77.499 54s68.333 17 111 17c43.333 0 80.5 -5.66699 111.5 -17s56.5 -29.333 76.5 -54s34.667 -56.334 44 -95.001s14 -85.334 14 -140.001zM120.002 294c0 -46 3.5 -85.168 10.5 -117.501s18 -58.666 33 -78.999
s34.167 -35 57.5 -44s51.666 -13.5 84.999 -13.5c32.667 0 60.667 4.66699 84 14s42.333 24 57 44s25.334 46.167 32.001 78.5s10 71.5 10 117.5s-3.33301 85 -10 117s-17.334 58 -32.001 78s-33.667 34.5 -57 43.5s-51.333 13.5 -84 13.5
c-33.333 0 -61.666 -4.5 -84.999 -13.5s-42.5 -23.5 -57.5 -43.5s-26 -46 -33 -78s-10.5 -71 -10.5 -117z" />
    <glyph glyph-name="p" unicode="p" horiz-adv-x="622" 
d="M565 296c0 -56 -5.33398 -103.499 -16.001 -142.499s-26.167 -70.833 -46.5 -95.5s-44.833 -42.5 -73.5 -53.5s-61 -16.5 -97 -16.5c-34 0 -66 5.66699 -96 17s-55.667 31 -77 59l-2 -1l1 -81v-126h-63v731l45 4l13 -68h3c20 24 45.833 42.833 77.5 56.5
s66.834 20.5 105.501 20.5c36 0 68 -5 96 -15s51.667 -26.833 71 -50.5s34 -54.834 44 -93.501s15 -87 15 -145zM501.999 296.001c0 48 -4 87.8301 -12 119.497s-19.5 56.834 -34.5 75.501s-33.333 31.834 -55 39.501s-46.5 11.5 -74.5 11.5
c-75.333 0 -131.333 -27.333 -168 -82v-332c13.333 -22.667 33.333 -42.667 60 -60s60.667 -26 102 -26c26.667 0 51.167 3.83301 73.5 11.5s41.5 21 57.5 40s28.5 44.833 37.5 77.5s13.5 74.334 13.5 125.001z" />
    <glyph glyph-name="q" unicode="q" horiz-adv-x="622" 
d="M463 -146v129l2 81l-2 1c-20 -24 -44.833 -42.333 -74.5 -55s-62.834 -19 -99.501 -19c-36 0 -68.333 5.33301 -97 16s-53 28 -73 52s-35.333 55.333 -46 94s-16 86 -16 142c0 54.667 5 101.167 15 139.5s25 69.833 45 94.5s44.5 42.667 73.5 54s62.5 17 100.5 17
c38.667 0 73.834 -7 105.501 -21s57.167 -34.667 76.5 -62h3l10 72h39l-1 -733zM464 456c-5.33301 11.333 -13.167 22.167 -23.5 32.5s-22.666 19.5 -36.999 27.5s-30.333 14.333 -48 19s-35.834 7 -54.501 7c-32 0 -59.333 -4.16699 -82 -12.5s-41.334 -22.333 -56.001 -42
s-25.5 -45.167 -32.5 -76.5s-10.5 -70 -10.5 -116c0 -46.667 3.66699 -85.834 11 -117.501s18.5 -57.167 33.5 -76.5s33.833 -33.166 56.5 -41.499s49 -12.5 79 -12.5c24.667 0 46.834 3 66.501 9s36.5 13.5 50.5 22.5s25 19.167 33 30.5s12.667 22.333 14 33v314z" />
    <glyph glyph-name="r" unicode="r" horiz-adv-x="437" 
d="M95 0v587.001l49 4l2 -66l2 -81h2c17.333 46 42.5 83.167 75.5 111.5s71.833 42.5 116.5 42.5c21.333 0 40 -2.33301 56 -7l-5 -63c-15.333 5.33301 -33.333 8 -54 8c-25.333 0 -49 -5.5 -71 -16.5s-41.5 -26.833 -58.5 -47.5s-30.333 -45.334 -40 -74.001
s-14.5 -61 -14.5 -97v-301h-60z" />
    <glyph glyph-name="s" unicode="s" horiz-adv-x="490" 
d="M440 166c0 -53.333 -15.8311 -96.3252 -47.498 -128.992s-81.834 -49 -150.501 -49c-35.333 0 -68.666 4.66699 -99.999 14s-58 22.666 -80 39.999l10 55c21.333 -18 47.333 -31.833 78 -41.5s61 -14.5 91 -14.5c50 0 86.167 11.333 108.5 34s33.5 51 33.5 85
c0 26 -7.83301 46.667 -23.5 62s-35.334 28.166 -59.001 38.499s-49.167 19.666 -76.5 27.999s-52.833 18.666 -76.5 30.999s-43.334 28.166 -59.001 47.499s-23.5 45.333 -23.5 78c0 48 16.667 85.833 50 113.5s82 41.5 146 41.5c57.333 0 109 -11.333 155 -34l-6 -53
c-49.333 22 -99.333 33 -150 33c-42 0 -75.333 -8.83301 -100 -26.5s-37 -41.5 -37 -71.5c0 -24.667 7.83301 -43.834 23.5 -57.501s35.167 -25.167 58.5 -34.5s48.833 -18 76.5 -26s53.167 -18.333 76.5 -31s42.833 -29.334 58.5 -50.001s23.5 -48.334 23.5 -83.001z" />
    <glyph glyph-name="t" unicode="t" horiz-adv-x="387" 
d="M192 541v-399.001c0 -36 8.5 -61.5 25.5 -76.5s40.5 -22.5 70.5 -22.5c8.66699 0 17.667 0.666992 27 2s17 3.33301 23 6l5 -48c-8 -3.33301 -18.5 -6.16602 -31.5 -8.49902s-26.167 -3.5 -39.5 -3.5c-46 0 -81 12.167 -105 36.5s-36 61.833 -36 112.5v401h-92v49h93
l12 155l48 6v-161h155v-49h-155z" />
    <glyph glyph-name="u" unicode="u" horiz-adv-x="605" 
d="M521 186c0 -62.667 -17.832 -111.333 -53.499 -146s-90.834 -52 -165.501 -52c-74 0 -128.833 17.5 -164.5 52.5s-53.5 83.5 -53.5 145.5v404h60v-402c0 -46 13.333 -81.167 40 -105.5s66 -36.5 118 -36.5s91.5 12 118.5 36s40.5 59.333 40.5 106v402h60v-404z" />
    <glyph glyph-name="v" unicode="v" horiz-adv-x="630" 
d="M587 590l-236 -590h-72l-237 590h69l175 -459l28 -76h3l27 76l175 459h68z" />
    <glyph glyph-name="w" unicode="w" horiz-adv-x="862" 
d="M467 590l123 -466l20 -78h3l16 79l110 465h61l-149 -590h-77l-119 447l-19 79h-3l-20 -79l-122 -447h-75l-154 590h62l112 -463l18 -79h3l19 78l124 464h67z" />
    <glyph glyph-name="x" unicode="x" horiz-adv-x="590" 
d="M292 269l-170 -269h-72l202 300l-197 290h74l167 -258l165 258h71l-193 -288l200 -302h-75z" />
    <glyph glyph-name="y" unicode="y" horiz-adv-x="630" 
d="M190 -105c24 0 44.666 6.00098 61.999 18.001s33.333 34.667 48 68l4 13l-262 596h73l190 -461l30 -75h3l24 77l158 459h67l-225 -612c-20 -50.667 -43 -85.5 -69 -104.5s-57 -28.5 -93 -28.5c-32 0 -60.667 6.33301 -86 19l8 49
c11.333 -6.66699 22.833 -11.334 34.5 -14.001s22.834 -4 33.501 -4z" />
    <glyph glyph-name="z" unicode="z" horiz-adv-x="544" 
d="M189 120l-46 -63l1 -3h335l-2 -54h-407v44l287 425l46 64l-1 2h-319l2 55h390v-45z" />
    <glyph glyph-name="braceleft" unicode="{" horiz-adv-x="361" 
d="M141 238c0 -22 -1 -42.167 -3 -60.5l-6 -53.5l-6 -53c-2 -18 -3 -38 -3 -60c0 -26.667 7.83301 -47.5 23.5 -62.5s43.5 -22.5 83.5 -22.5h28v-50h-25c-30.667 0 -56.5 2.83301 -77.5 8.5s-38.167 13.834 -51.5 24.501s-23 24 -29 40s-9 34 -9 54c0 22.667 1 43.667 3 63
s4.33301 38.166 7 56.499s5 37 7 56s3 39.5 3 61.5c0 22.667 -7.33301 41.5 -22 56.5s-35 23.833 -61 26.5v32c26 2.66699 46.333 11.5 61 26.5s22 33.833 22 56.5c0 22 -1 42.333 -3 61s-4.33301 37.334 -7 56.001s-5 37.5 -7 56.5s-3 39.833 -3 62.5
c0 40.667 12.5 72.167 37.5 94.5s68.167 33.5 129.5 33.5h25v-51h-28c-40 0 -67.833 -7.33301 -83.5 -22s-23.5 -35.334 -23.5 -62.001c0 -22 1 -42 3 -60l6 -53.5l6 -53.5c2 -18 3 -38 3 -60c0 -23.333 -5.33301 -43.833 -16 -61.5s-26.667 -30.167 -48 -37.5v-3
c21.333 -8 37.333 -20.833 48 -38.5s16 -38.167 16 -61.5z" />
    <glyph glyph-name="bar" unicode="|" horiz-adv-x="276" 
d="M114 816h48v-993h-48v993z" />
    <glyph glyph-name="braceright" unicode="}" horiz-adv-x="361" 
d="M120 238c0 23.333 5.33301 43.832 16 61.499s26.667 30.5 48 38.5v3c-21.333 7.33301 -37.333 19.833 -48 37.5s-16 38.167 -16 61.5c0 22 1 42 3 60l6 53.5l6 53.5c2 18 3 38 3 60c0 26.667 -7.83301 47.334 -23.5 62.001s-43.5 22 -83.5 22h-28v51h25
c60.667 0 103.667 -11.167 129 -33.5s38 -53.833 38 -94.5c0 -22.667 -1 -43.5 -3 -62.5s-4.33301 -37.833 -7 -56.5s-5 -37.334 -7 -56.001s-3 -39 -3 -61c0 -22.667 7.33301 -41.5 22 -56.5s35 -23.833 61 -26.5v-32c-26 -2.66699 -46.333 -11.5 -61 -26.5
s-22 -33.833 -22 -56.5c0 -22 1 -42.5 3 -61.5s4.33301 -37.667 7 -56s5 -37.166 7 -56.499s3 -40.333 3 -63c0 -40.667 -12.667 -72 -38 -94s-68.333 -33 -129 -33h-25v50h28c40 0 67.833 7.5 83.5 22.5s23.5 35.833 23.5 62.5c0 22 -1 42 -3 60l-6 53l-6 53.5
c-2 18.333 -3 38.5 -3 60.5z" />
    <glyph glyph-name="asciitilde" unicode="~" 
d="M106 643c6.66699 40.667 19.6689 71.334 39.002 92.001s46.333 31 81 31c18 0 35.667 -3.83301 53 -11.5s34.166 -16.167 50.499 -25.5s32.666 -17.833 48.999 -25.5s32.5 -11.5 48.5 -11.5c23.333 0 40.666 5.5 51.999 16.5s20.666 26.5 27.999 46.5h40
c-14 -81.333 -54 -122 -120 -122c-18 0 -35.667 3.83301 -53 11.5s-34.166 16 -50.499 25s-32.5 17.333 -48.5 25s-32 11.5 -48 11.5c-22 0 -39.167 -5.33301 -51.5 -16s-22.166 -26.334 -29.499 -47.001h-40z" />
    <glyph glyph-name="afii10057" unicode="&#xa3;" horiz-adv-x="549" 
d="M438 239c0 -83.333 -21.168 -146.334 -63.501 -189.001s-102.833 -64 -181.5 -64c-33.333 0 -62.666 4.16699 -87.999 12.5s-47 19.5 -65 33.5l7 61c17.333 -14 37.5 -25 60.5 -33s49.167 -12 78.5 -12c58.667 0 104.167 15.833 136.5 47.5s48.5 79.834 48.5 144.501v510
h67v-511z" />
    <glyph glyph-name="afii10057" unicode="&#x408;" horiz-adv-x="549" 
d="M438 239c0 -83.333 -21.168 -146.334 -63.501 -189.001s-102.833 -64 -181.5 -64c-33.333 0 -62.666 4.16699 -87.999 12.5s-47 19.5 -65 33.5l7 61c17.333 -14 37.5 -25 60.5 -33s49.167 -12 78.5 -12c58.667 0 104.167 15.833 136.5 47.5s48.5 79.834 48.5 144.501v510
h67v-511z" />
    <glyph glyph-name="afii10053" unicode="&#xaa;" horiz-adv-x="611" 
d="M552 665c-20.667 9.33301 -45.1699 17.3311 -73.5029 23.998s-58.166 10 -89.499 10c-40.667 0 -76.167 -4.66699 -106.5 -14s-55.833 -25 -76.5 -47s-36.667 -50.667 -48 -86s-18 -79 -20 -131h367v-56h-367c0.666992 -60 6.5 -110.167 17.5 -150.5s27 -72.833 48 -97.5
s47.167 -42.167 78.5 -52.5s68 -15.5 110 -15.5c32 0 61.333 3.5 88 10.5s51.334 16.5 74.001 28.5l11 -57c-22.667 -12 -50 -22.5 -82 -31.5s-65 -13.5 -99 -13.5c-54.667 0 -101.667 7.66699 -141 23s-71.833 39.333 -97.5 72s-44.667 73.834 -57 123.501
s-18.5 109.167 -18.5 178.5c0 66 6.16699 122.833 18.5 170.5s31.5 87 57.5 118s58.833 53.833 98.5 68.5s86.834 22 141.501 22c16 0 32.167 -1 48.5 -3s32.333 -4.66699 48 -8s30.167 -7.16602 43.5 -11.499s25 -8.83301 35 -13.5z" />
    <glyph glyph-name="afii10053" unicode="&#x404;" horiz-adv-x="611" 
d="M552 665c-20.667 9.33301 -45.1699 17.3311 -73.5029 23.998s-58.166 10 -89.499 10c-40.667 0 -76.167 -4.66699 -106.5 -14s-55.833 -25 -76.5 -47s-36.667 -50.667 -48 -86s-18 -79 -20 -131h367v-56h-367c0.666992 -60 6.5 -110.167 17.5 -150.5s27 -72.833 48 -97.5
s47.167 -42.167 78.5 -52.5s68 -15.5 110 -15.5c32 0 61.333 3.5 88 10.5s51.334 16.5 74.001 28.5l11 -57c-22.667 -12 -50 -22.5 -82 -31.5s-65 -13.5 -99 -13.5c-54.667 0 -101.667 7.66699 -141 23s-71.833 39.333 -97.5 72s-44.667 73.834 -57 123.501
s-18.5 109.167 -18.5 178.5c0 66 6.16699 122.833 18.5 170.5s31.5 87 57.5 118s58.833 53.833 98.5 68.5s86.834 22 141.501 22c16 0 32.167 -1 48.5 -3s32.333 -4.66699 48 -8s30.167 -7.16602 43.5 -11.499s25 -8.83301 35 -13.5z" />
    <glyph glyph-name="afii10055" unicode="&#xb2;" horiz-adv-x="316" 
d="M125 750h66v-750h-66v750z" />
    <glyph glyph-name="afii10055" unicode="&#x406;" horiz-adv-x="316" 
d="M125 750h66v-750h-66v750z" />
    <glyph glyph-name="afii10103" unicode="&#xb3;" horiz-adv-x="308" 
d="M123 0v587l61 5v-592h-61zM201 753c0 -28 -15.667 -42 -47 -42c-15.333 0 -27 3 -35 9s-12 17 -12 33c0 28 15.667 42 47 42s47 -14 47 -42z" />
    <glyph glyph-name="afii10103" unicode="&#x456;" horiz-adv-x="308" 
d="M123 0v587l61 5v-592h-61zM201 753c0 -28 -15.667 -42 -47 -42c-15.333 0 -27 3 -35 9s-12 17 -12 33c0 28 15.667 42 47 42s47 -14 47 -42z" />
    <glyph glyph-name="mu" unicode="&#xb5;" horiz-adv-x="616" 
d="M321 -11c-17.333 0 -34.502 1.66602 -51.502 4.99902s-33.167 8.83301 -48.5 16.5s-29.166 17.5 -41.499 29.5s-22.5 26.667 -30.5 44l-2 -1c1.33301 -40.667 2.83301 -79.667 4.5 -117s3.5 -74 5.5 -110l-62 -6v740h61l-1 -399c0 -23.333 4.16699 -44.166 12.5 -62.499
s19.833 -33.833 34.5 -46.5s32 -22.167 52 -28.5s42 -9.5 66 -9.5c21.333 0 41.166 2.66699 59.499 8s34.333 13.5 48 24.5s24.334 24.333 32.001 40s11.5 34.167 11.5 55.5v418h61v-589l-44 -5l-10 66l-3 1c-13.333 -24 -33.666 -42.333 -60.999 -55s-58.333 -19 -93 -19z
" />
    <glyph glyph-name="afii10071" unicode="&#xb8;" horiz-adv-x="573" 
d="M320 -12c-47.333 0 -87.5 6.33496 -120.5 19.002s-60.167 32.334 -81.5 59.001s-36.833 60.5 -46.5 101.5s-14.5 90.167 -14.5 147.5c0 93.333 19.5 164.166 58.5 212.499s97.833 72.5 176.5 72.5c33.333 0 63.833 -5.16699 91.5 -15.5s51.5 -26.5 71.5 -48.5
s35.5 -50.167 46.5 -84.5s16.5 -75.5 16.5 -123.5c0 -4.66699 -0.166992 -9.83398 -0.5 -15.501s-0.833008 -10.5 -1.5 -14.5h-397c0.666992 -47.333 5.16699 -87.166 13.5 -119.499s21 -58.333 38 -78s38.333 -33.834 64 -42.501s56.167 -13 91.5 -13
c31.333 0 60 3.66699 86 11s51.667 17.666 77 30.999l8 -53c-25.333 -14.667 -52.5 -26 -81.5 -34s-60.833 -12 -95.5 -12zM462 341.002c-0.666992 37.333 -5.33301 69.001 -14 95.001s-20.5 47.167 -35.5 63.5s-32.667 28.166 -53 35.499s-42.833 11 -67.5 11
c-58.667 0 -101.5 -17 -128.5 -51s-42.167 -85.333 -45.5 -154h344zM245.001 756.003c0 -25.333 -11.667 -38 -35 -38c-11.333 0 -20 2.83301 -26 8.5s-9 15.5 -9 29.5c0 12 3 21.5 9 28.5s14.667 10.5 26 10.5c23.333 0 35 -13 35 -39zM394.001 756.003
c0 -25.333 -11.667 -38 -35 -38c-11.333 0 -20 2.83301 -26 8.5s-9 15.5 -9 29.5c0 12 3 21.5 9 28.5s14.667 10.5 26 10.5c23.333 0 35 -13 35 -39z" />
    <glyph glyph-name="afii10071" unicode="&#x451;" horiz-adv-x="573" 
d="M320 -12c-47.333 0 -87.5 6.33496 -120.5 19.002s-60.167 32.334 -81.5 59.001s-36.833 60.5 -46.5 101.5s-14.5 90.167 -14.5 147.5c0 93.333 19.5 164.166 58.5 212.499s97.833 72.5 176.5 72.5c33.333 0 63.833 -5.16699 91.5 -15.5s51.5 -26.5 71.5 -48.5
s35.5 -50.167 46.5 -84.5s16.5 -75.5 16.5 -123.5c0 -4.66699 -0.166992 -9.83398 -0.5 -15.501s-0.833008 -10.5 -1.5 -14.5h-397c0.666992 -47.333 5.16699 -87.166 13.5 -119.499s21 -58.333 38 -78s38.333 -33.834 64 -42.501s56.167 -13 91.5 -13
c31.333 0 60 3.66699 86 11s51.667 17.666 77 30.999l8 -53c-25.333 -14.667 -52.5 -26 -81.5 -34s-60.833 -12 -95.5 -12zM462 341.002c-0.666992 37.333 -5.33301 69.001 -14 95.001s-20.5 47.167 -35.5 63.5s-32.667 28.166 -53 35.499s-42.833 11 -67.5 11
c-58.667 0 -101.5 -17 -128.5 -51s-42.167 -85.333 -45.5 -154h344zM245.001 756.003c0 -25.333 -11.667 -38 -35 -38c-11.333 0 -20 2.83301 -26 8.5s-9 15.5 -9 29.5c0 12 3 21.5 9 28.5s14.667 10.5 26 10.5c23.333 0 35 -13 35 -39zM394.001 756.003
c0 -25.333 -11.667 -38 -35 -38c-11.333 0 -20 2.83301 -26 8.5s-9 15.5 -9 29.5c0 12 3 21.5 9 28.5s14.667 10.5 26 10.5c23.333 0 35 -13 35 -39z" />
    <glyph glyph-name="afii10101" unicode="&#xba;" horiz-adv-x="501" 
d="M120 298c0 -47.333 4.16797 -87.166 12.501 -119.499s20.5 -58.5 36.5 -78.5s35.667 -34.5 59 -43.5s50.666 -13.5 81.999 -13.5c25.333 0 49.666 3.5 72.999 10.5s44.333 17.167 63 30.5l6 -53c-17.333 -13.333 -39.5 -24 -66.5 -32s-55.833 -12 -86.5 -12
c-81.333 0 -142 24.667 -182 74s-60 129.666 -60 240.999c0 100.667 19.333 175.5 58 224.5s100.334 73.5 185.001 73.5c28 0 54.667 -3.16699 80 -9.5s47.666 -14.166 66.999 -23.499l-5 -56c-18.667 9.33301 -39.167 16.833 -61.5 22.5s-45.166 8.5 -68.499 8.5
c-64 0 -110.833 -15.833 -140.5 -47.5s-46.5 -82.834 -50.5 -153.501h221v-43h-222z" />
    <glyph glyph-name="afii10101" unicode="&#x454;" horiz-adv-x="501" 
d="M120 298c0 -47.333 4.16797 -87.166 12.501 -119.499s20.5 -58.5 36.5 -78.5s35.667 -34.5 59 -43.5s50.666 -13.5 81.999 -13.5c25.333 0 49.666 3.5 72.999 10.5s44.333 17.167 63 30.5l6 -53c-17.333 -13.333 -39.5 -24 -66.5 -32s-55.833 -12 -86.5 -12
c-81.333 0 -142 24.667 -182 74s-60 129.666 -60 240.999c0 100.667 19.333 175.5 58 224.5s100.334 73.5 185.001 73.5c28 0 54.667 -3.16699 80 -9.5s47.666 -14.166 66.999 -23.499l-5 -56c-18.667 9.33301 -39.167 16.833 -61.5 22.5s-45.166 8.5 -68.499 8.5
c-64 0 -110.833 -15.833 -140.5 -47.5s-46.5 -82.834 -50.5 -153.501h221v-43h-222z" />
    <glyph glyph-name="afii10105" unicode="&#xbc;" horiz-adv-x="305" 
d="M182 -17c0 -51.333 -11.668 -86.999 -35.001 -106.999s-53.333 -30 -90 -30c-10 0 -20.667 1 -32 3s-21.333 4.66699 -30 8l5 48c6.66699 -2.66699 13.834 -4.83398 21.501 -6.50098s15.167 -2.5 22.5 -2.5c23.333 0 42 6.83301 56 20.5s21 36.167 21 67.5v603l61 5v-609
zM197.999 755.001c0 -28 -15.667 -42 -47 -42c-15.333 0 -27 3 -35 9s-12 17 -12 33c0 28 15.667 42 47 42s47 -14 47 -42z" />
    <glyph glyph-name="afii10105" unicode="&#x458;" horiz-adv-x="305" 
d="M182 -17c0 -51.333 -11.668 -86.999 -35.001 -106.999s-53.333 -30 -90 -30c-10 0 -20.667 1 -32 3s-21.333 4.66699 -30 8l5 48c6.66699 -2.66699 13.834 -4.83398 21.501 -6.50098s15.167 -2.5 22.5 -2.5c23.333 0 42 6.83301 56 20.5s21 36.167 21 67.5v603l61 5v-609
zM197.999 755.001c0 -28 -15.667 -42 -47 -42c-15.333 0 -27 3 -35 9s-12 17 -12 33c0 28 15.667 42 47 42s47 -14 47 -42z" />
    <glyph glyph-name="afii10054" unicode="&#xbd;" horiz-adv-x="563" 
d="M515 207c0 -68.667 -20.499 -122.667 -61.499 -162s-101.833 -59 -182.5 -59c-43.333 0 -82.5 5.33301 -117.5 16s-66.833 24.667 -95.5 42l12 62c29.333 -19.333 60.166 -33.833 92.499 -43.5s68.5 -14.5 108.5 -14.5c60 0 105 13.667 135 41s45 65.333 45 114
c0 33.333 -9.5 59.666 -28.5 78.999s-42.833 35.5 -71.5 48.5s-59.5 24.667 -92.5 35s-63.833 23.333 -92.5 39s-52.5 35.667 -71.5 60s-28.5 57.166 -28.5 98.499c0 28 4.66699 54.167 14 78.5s23.5 45.5 42.5 63.5s43.167 32 72.5 42s64 15 104 15
c36.667 0 71.167 -3.5 103.5 -10.5s61.833 -16.833 88.5 -29.5l-12 -59c-28.667 12 -57.167 21.333 -85.5 28s-58.833 10 -91.5 10c-31.333 0 -57.833 -3.66699 -79.5 -11s-39.5 -17.166 -53.5 -29.499s-24.167 -26.5 -30.5 -42.5s-9.5 -33 -9.5 -51c0 -32 9.5 -57 28.5 -75
s42.833 -33.167 71.5 -45.5s59.667 -23.666 93 -33.999s64.333 -23.5 93 -39.5s52.5 -36.833 71.5 -62.5s28.5 -60.167 28.5 -103.5z" />
    <glyph glyph-name="afii10054" unicode="&#x405;" horiz-adv-x="563" 
d="M515 207c0 -68.667 -20.499 -122.667 -61.499 -162s-101.833 -59 -182.5 -59c-43.333 0 -82.5 5.33301 -117.5 16s-66.833 24.667 -95.5 42l12 62c29.333 -19.333 60.166 -33.833 92.499 -43.5s68.5 -14.5 108.5 -14.5c60 0 105 13.667 135 41s45 65.333 45 114
c0 33.333 -9.5 59.666 -28.5 78.999s-42.833 35.5 -71.5 48.5s-59.5 24.667 -92.5 35s-63.833 23.333 -92.5 39s-52.5 35.667 -71.5 60s-28.5 57.166 -28.5 98.499c0 28 4.66699 54.167 14 78.5s23.5 45.5 42.5 63.5s43.167 32 72.5 42s64 15 104 15
c36.667 0 71.167 -3.5 103.5 -10.5s61.833 -16.833 88.5 -29.5l-12 -59c-28.667 12 -57.167 21.333 -85.5 28s-58.833 10 -91.5 10c-31.333 0 -57.833 -3.66699 -79.5 -11s-39.5 -17.166 -53.5 -29.499s-24.167 -26.5 -30.5 -42.5s-9.5 -33 -9.5 -51c0 -32 9.5 -57 28.5 -75
s42.833 -33.167 71.5 -45.5s59.667 -23.666 93 -33.999s64.333 -23.5 93 -39.5s52.5 -36.833 71.5 -62.5s28.5 -60.167 28.5 -103.5z" />
    <glyph glyph-name="afii10102" unicode="&#xbe;" horiz-adv-x="490" 
d="M440 166c0 -53.333 -15.8311 -96.3252 -47.498 -128.992s-81.834 -49 -150.501 -49c-35.333 0 -68.666 4.66699 -99.999 14s-58 22.666 -80 39.999l10 55c21.333 -18 47.333 -31.833 78 -41.5s61 -14.5 91 -14.5c50 0 86.167 11.333 108.5 34s33.5 51 33.5 85
c0 26 -7.83301 46.667 -23.5 62s-35.334 28.166 -59.001 38.499s-49.167 19.666 -76.5 27.999s-52.833 18.666 -76.5 30.999s-43.334 28.166 -59.001 47.499s-23.5 45.333 -23.5 78c0 48 16.667 85.833 50 113.5s82 41.5 146 41.5c57.333 0 109 -11.333 155 -34l-6 -53
c-49.333 22 -99.333 33 -150 33c-42 0 -75.333 -8.83301 -100 -26.5s-37 -41.5 -37 -71.5c0 -24.667 7.83301 -43.834 23.5 -57.501s35.167 -25.167 58.5 -34.5s48.833 -18 76.5 -26s53.167 -18.333 76.5 -31s42.833 -29.334 58.5 -50.001s23.5 -48.334 23.5 -83.001z" />
    <glyph glyph-name="afii10102" unicode="&#x455;" horiz-adv-x="490" 
d="M440 166c0 -53.333 -15.8311 -96.3252 -47.498 -128.992s-81.834 -49 -150.501 -49c-35.333 0 -68.666 4.66699 -99.999 14s-58 22.666 -80 39.999l10 55c21.333 -18 47.333 -31.833 78 -41.5s61 -14.5 91 -14.5c50 0 86.167 11.333 108.5 34s33.5 51 33.5 85
c0 26 -7.83301 46.667 -23.5 62s-35.334 28.166 -59.001 38.499s-49.167 19.666 -76.5 27.999s-52.833 18.666 -76.5 30.999s-43.334 28.166 -59.001 47.499s-23.5 45.333 -23.5 78c0 48 16.667 85.833 50 113.5s82 41.5 146 41.5c57.333 0 109 -11.333 155 -34l-6 -53
c-49.333 22 -99.333 33 -150 33c-42 0 -75.333 -8.83301 -100 -26.5s-37 -41.5 -37 -71.5c0 -24.667 7.83301 -43.834 23.5 -57.501s35.167 -25.167 58.5 -34.5s48.833 -18 76.5 -26s53.167 -18.333 76.5 -31s42.833 -29.334 58.5 -50.001s23.5 -48.334 23.5 -83.001z" />
    <glyph glyph-name="afii10017" unicode="&#xc0;" horiz-adv-x="698" 
d="M528 198h-361l-71 -198h-71l285 750h78l285 -750h-74zM322 624l-133 -367h318l-131 367l-25 77h-3z" />
    <glyph glyph-name="afii10017" unicode="&#x410;" horiz-adv-x="698" 
d="M528 198h-361l-71 -198h-71l285 750h78l285 -750h-74zM322 624l-133 -367h318l-131 367l-25 77h-3z" />
    <glyph glyph-name="afii10019" unicode="&#xc2;" horiz-adv-x="684" 
d="M612 210c0 -33.333 -4.16602 -63.001 -12.499 -89.001s-21.5 -48 -39.5 -66s-41.333 -31.667 -70 -41s-63.334 -14 -104.001 -14h-275v750h260c70 0 122.333 -15 157 -45s52 -76.333 52 -139c0 -49.333 -10.333 -87.333 -31 -114s-47 -44.667 -79 -54v-2
c44 -9.33301 78.667 -28.666 104 -57.999s38 -72 38 -128zM547.001 214.999c0 51.333 -13.5 89 -40.5 113s-68.167 36 -123.5 36h-209v-306h213c50 0 89.167 11.667 117.5 35s42.5 64 42.5 122zM517.001 554.999c0 48.667 -12 83.5 -36 104.5s-61.333 31.5 -112 31.5h-194
v-273h202c93.333 0 140 45.667 140 137z" />
    <glyph glyph-name="afii10019" unicode="&#x412;" horiz-adv-x="684" 
d="M612 210c0 -33.333 -4.16602 -63.001 -12.499 -89.001s-21.5 -48 -39.5 -66s-41.333 -31.667 -70 -41s-63.334 -14 -104.001 -14h-275v750h260c70 0 122.333 -15 157 -45s52 -76.333 52 -139c0 -49.333 -10.333 -87.333 -31 -114s-47 -44.667 -79 -54v-2
c44 -9.33301 78.667 -28.666 104 -57.999s38 -72 38 -128zM547.001 214.999c0 51.333 -13.5 89 -40.5 113s-68.167 36 -123.5 36h-209v-306h213c50 0 89.167 11.667 117.5 35s42.5 64 42.5 122zM517.001 554.999c0 48.667 -12 83.5 -36 104.5s-61.333 31.5 -112 31.5h-194
v-273h202c93.333 0 140 45.667 140 137z" />
    <glyph glyph-name="afii10020" unicode="&#xc3;" horiz-adv-x="595" 
d="M177 686v-686h-66v750h442l2 -64h-378z" />
    <glyph glyph-name="afii10020" unicode="&#x413;" horiz-adv-x="595" 
d="M177 686v-686h-66v750h442l2 -64h-378z" />
    <glyph glyph-name="afii10022" unicode="&#xc5;" horiz-adv-x="626" 
d="M574 62l-3 -62h-460v750h442l3 -62h-380v-267h329v-56h-329v-303h398z" />
    <glyph glyph-name="afii10022" unicode="&#x415;" horiz-adv-x="626" 
d="M574 62l-3 -62h-460v750h442l3 -62h-380v-267h329v-56h-329v-303h398z" />
    <glyph glyph-name="afii10025" unicode="&#xc7;" 
d="M576 223c0 -34.667 -5.16602 -66.1689 -15.499 -94.502s-26.333 -52.666 -48 -72.999s-49.167 -36 -82.5 -47s-73 -16.5 -119 -16.5c-52 0 -95.833 6 -131.5 18s-66.5 26.333 -92.5 43l15 55c29.333 -19.333 60.666 -34 93.999 -44s71.333 -15 114 -15
c35.333 0 65.833 4.5 91.5 13.5s47 21.333 64 37s29.5 34.334 37.5 56.001s12 45.5 12 71.5c0 52.667 -20.167 90.834 -60.5 114.501s-107.166 35.5 -200.499 35.5v50c86.667 0 148.5 12.5 185.5 37.5s55.5 60.833 55.5 107.5c0 44 -16.167 76.167 -48.5 96.5
s-75.833 30.5 -130.5 30.5c-42 0 -79.333 -6.83301 -112 -20.5s-63 -32.167 -91 -55.5l-19 51c25.333 23.333 57.166 43.166 95.499 59.499s81.5 24.5 129.5 24.5c73.333 0 130.833 -15.333 172.5 -46s62.5 -76 62.5 -136c0 -24.667 -3.5 -46.334 -10.5 -65.001
s-16.833 -35 -29.5 -49s-27.667 -25.667 -45 -35s-36 -16.666 -56 -21.999v-2c52.667 -10.667 93 -30.167 121 -58.5s42 -68.833 42 -121.5z" />
    <glyph glyph-name="afii10025" unicode="&#x417;" 
d="M576 223c0 -34.667 -5.16602 -66.1689 -15.499 -94.502s-26.333 -52.666 -48 -72.999s-49.167 -36 -82.5 -47s-73 -16.5 -119 -16.5c-52 0 -95.833 6 -131.5 18s-66.5 26.333 -92.5 43l15 55c29.333 -19.333 60.666 -34 93.999 -44s71.333 -15 114 -15
c35.333 0 65.833 4.5 91.5 13.5s47 21.333 64 37s29.5 34.334 37.5 56.001s12 45.5 12 71.5c0 52.667 -20.167 90.834 -60.5 114.501s-107.166 35.5 -200.499 35.5v50c86.667 0 148.5 12.5 185.5 37.5s55.5 60.833 55.5 107.5c0 44 -16.167 76.167 -48.5 96.5
s-75.833 30.5 -130.5 30.5c-42 0 -79.333 -6.83301 -112 -20.5s-63 -32.167 -91 -55.5l-19 51c25.333 23.333 57.166 43.166 95.499 59.499s81.5 24.5 129.5 24.5c73.333 0 130.833 -15.333 172.5 -46s62.5 -76 62.5 -136c0 -24.667 -3.5 -46.334 -10.5 -65.001
s-16.833 -35 -29.5 -49s-27.667 -25.667 -45 -35s-36 -16.666 -56 -21.999v-2c52.667 -10.667 93 -30.167 121 -58.5s42 -68.833 42 -121.5z" />
    <glyph glyph-name="afii10026" unicode="&#xc8;" horiz-adv-x="764" 
d="M111 0v750h59l-1 -553l-2 -80l2 -1l44 68l375 566h65v-750h-60v566l1 81l-2 1l-44 -68l-388 -580h-49z" />
    <glyph glyph-name="afii10026" unicode="&#x418;" horiz-adv-x="764" 
d="M111 0v750h59l-1 -553l-2 -80l2 -1l44 68l375 566h65v-750h-60v566l1 81l-2 1l-44 -68l-388 -580h-49z" />
    <glyph glyph-name="afii10027" unicode="&#xc9;" horiz-adv-x="764" 
d="M111 0v750h59l-1 -553l-2 -80l2 -1l44 68l375 566h65v-750h-60v566l1 81l-2 1l-44 -68l-388 -580h-49zM515 960c0 -46 -10.666 -82.333 -31.999 -109s-54.333 -40 -99 -40s-77.834 12.833 -99.501 38.5s-32.5 62.5 -32.5 110.5h46c0 -37.333 8 -65.166 24 -83.499
s36.667 -27.5 62 -27.5s45.833 9.16699 61.5 27.5s23.5 46.166 23.5 83.499h46z" />
    <glyph glyph-name="afii10027" unicode="&#x419;" horiz-adv-x="764" 
d="M111 0v750h59l-1 -553l-2 -80l2 -1l44 68l375 566h65v-750h-60v566l1 81l-2 1l-44 -68l-388 -580h-49zM515 960c0 -46 -10.666 -82.333 -31.999 -109s-54.333 -40 -99 -40s-77.834 12.833 -99.501 38.5s-32.5 62.5 -32.5 110.5h46c0 -37.333 8 -65.166 24 -83.499
s36.667 -27.5 62 -27.5s45.833 9.16699 61.5 27.5s23.5 46.166 23.5 83.499h46z" />
    <glyph glyph-name="afii10028" unicode="&#xca;" horiz-adv-x="694" 
d="M574 0l-272 363h-125v-363h-66v750h66v-328h126l258 328h82l-280 -354l297 -396h-86z" />
    <glyph glyph-name="afii10028" unicode="&#x41a;" horiz-adv-x="694" 
d="M574 0l-272 363h-125v-363h-66v750h66v-328h126l258 328h82l-280 -354l297 -396h-86z" />
    <glyph glyph-name="afii10030" unicode="&#xcc;" horiz-adv-x="911" 
d="M189 750l237 -583l29 -75h3l28 75l237 583h77v-750h-59v561l2 81l-3 1l-29 -76l-231 -567h-50l-231 564l-29 76l-2 -1l1 -81v-558h-58v750h78z" />
    <glyph glyph-name="afii10030" unicode="&#x41c;" horiz-adv-x="911" 
d="M189 750l237 -583l29 -75h3l28 75l237 583h77v-750h-59v561l2 81l-3 1l-29 -76l-231 -567h-50l-231 564l-29 76l-2 -1l1 -81v-558h-58v750h78z" />
    <glyph glyph-name="afii10031" unicode="&#xcd;" horiz-adv-x="759" 
d="M582 0v361h-405v-361h-66v750h66v-327h405v327h66v-750h-66z" />
    <glyph glyph-name="afii10031" unicode="&#x41d;" horiz-adv-x="759" 
d="M582 0v361h-405v-361h-66v750h66v-327h405v327h66v-750h-66z" />
    <glyph glyph-name="afii10032" unicode="&#xce;" horiz-adv-x="737" 
d="M668 375c0 -70 -5.33301 -129.498 -16 -178.498s-27.834 -89.167 -51.501 -120.5s-54.5 -54.166 -92.5 -68.499s-84.333 -21.5 -139 -21.5c-54 0 -100 7.16699 -138 21.5s-68.833 37.166 -92.5 68.499s-41 71.666 -52 120.999s-16.5 108.666 -16.5 177.999
s5.33301 128.5 16 177.5s28 89 52 120s55 53.667 93 68s84 21.5 138 21.5c54.667 0 101 -7.16699 139 -21.5s68.833 -37 92.5 -68s40.834 -71 51.501 -120s16 -108.167 16 -177.5zM600 375.002c0 63.333 -4.33691 115.833 -13.0039 157.5s-22.167 74.834 -40.5 99.501
s-42.166 42 -71.499 52s-64.666 15 -105.999 15s-76.666 -5 -105.999 -15s-53.166 -27.333 -71.499 -52s-31.833 -57.834 -40.5 -99.501s-13 -94.167 -13 -157.5s4.33301 -115.833 13 -157.5s22.334 -74.834 41.001 -99.501s42.667 -42.167 72 -52.5
s64.666 -15.5 105.999 -15.5s76.5 5.16699 105.5 15.5s52.833 27.833 71.5 52.5s32.167 57.834 40.5 99.501s12.5 94.167 12.5 157.5z" />
    <glyph glyph-name="afii10032" unicode="&#x41e;" horiz-adv-x="737" 
d="M668 375c0 -70 -5.33301 -129.498 -16 -178.498s-27.834 -89.167 -51.501 -120.5s-54.5 -54.166 -92.5 -68.499s-84.333 -21.5 -139 -21.5c-54 0 -100 7.16699 -138 21.5s-68.833 37.166 -92.5 68.499s-41 71.666 -52 120.999s-16.5 108.666 -16.5 177.999
s5.33301 128.5 16 177.5s28 89 52 120s55 53.667 93 68s84 21.5 138 21.5c54.667 0 101 -7.16699 139 -21.5s68.833 -37 92.5 -68s40.834 -71 51.501 -120s16 -108.167 16 -177.5zM600 375.002c0 63.333 -4.33691 115.833 -13.0039 157.5s-22.167 74.834 -40.5 99.501
s-42.166 42 -71.499 52s-64.666 15 -105.999 15s-76.666 -5 -105.999 -15s-53.166 -27.333 -71.499 -52s-31.833 -57.834 -40.5 -99.501s-13 -94.167 -13 -157.5s4.33301 -115.833 13 -157.5s22.334 -74.834 41.001 -99.501s42.667 -42.167 72 -52.5
s64.666 -15.5 105.999 -15.5s76.5 5.16699 105.5 15.5s52.833 27.833 71.5 52.5s32.167 57.834 40.5 99.501s12.5 94.167 12.5 157.5z" />
    <glyph glyph-name="afii10033" unicode="&#xcf;" horiz-adv-x="759" 
d="M582 0v688h-405v-688h-66v750h537v-750h-66z" />
    <glyph glyph-name="afii10033" unicode="&#x41f;" horiz-adv-x="759" 
d="M582 0v688h-405v-688h-66v750h537v-750h-66z" />
    <glyph glyph-name="afii10034" unicode="&#xd0;" horiz-adv-x="646" 
d="M594 527c0 -75.333 -19.167 -131.5 -57.5 -168.5s-100.5 -55.5 -186.5 -55.5h-173v-303h-66v750h239c85.333 0 147.333 -17.5 186 -52.5s58 -91.833 58 -170.5zM527 527c0 60 -14.5 102.333 -43.5 127s-73.5 37 -133.5 37h-173v-331h173c29.333 0 55 2.66699 77 8
s40.5 14.5 55.5 27.5s26.167 30.167 33.5 51.5s11 48 11 80z" />
    <glyph glyph-name="afii10034" unicode="&#x420;" horiz-adv-x="646" 
d="M594 527c0 -75.333 -19.167 -131.5 -57.5 -168.5s-100.5 -55.5 -186.5 -55.5h-173v-303h-66v750h239c85.333 0 147.333 -17.5 186 -52.5s58 -91.833 58 -170.5zM527 527c0 60 -14.5 102.333 -43.5 127s-73.5 37 -133.5 37h-173v-331h173c29.333 0 55 2.66699 77 8
s40.5 14.5 55.5 27.5s26.167 30.167 33.5 51.5s11 48 11 80z" />
    <glyph glyph-name="afii10035" unicode="&#xd1;" horiz-adv-x="611" 
d="M552 665c-20.667 9.33301 -45.168 17.3311 -73.501 23.998s-58.166 10 -89.499 10c-42.667 0 -79.834 -5.33301 -111.501 -16s-57.834 -28.334 -78.501 -53.001s-36 -57.167 -46 -97.5s-15 -90.166 -15 -149.499c0 -63.333 5.16699 -116.333 15.5 -159s26 -77 47 -103
s47.333 -44.5 79 -55.5s69.167 -16.5 112.5 -16.5c32 0 61.333 3.5 88 10.5s51.334 16.5 74.001 28.5l11 -57c-22.667 -12 -50 -22.5 -82 -31.5s-65 -13.5 -99 -13.5c-54.667 0 -101.667 7.66699 -141 23s-71.833 39.333 -97.5 72s-44.667 73.834 -57 123.501
s-18.5 109.167 -18.5 178.5c0 66 6.16699 122.833 18.5 170.5s31.5 87 57.5 118s58.833 53.833 98.5 68.5s86.834 22 141.501 22c16 0 32.167 -1 48.5 -3s32.333 -4.66699 48 -8s30.167 -7.16602 43.5 -11.499s25 -8.83301 35 -13.5z" />
    <glyph glyph-name="afii10035" unicode="&#x421;" horiz-adv-x="611" 
d="M552 665c-20.667 9.33301 -45.168 17.3311 -73.501 23.998s-58.166 10 -89.499 10c-42.667 0 -79.834 -5.33301 -111.501 -16s-57.834 -28.334 -78.501 -53.001s-36 -57.167 -46 -97.5s-15 -90.166 -15 -149.499c0 -63.333 5.16699 -116.333 15.5 -159s26 -77 47 -103
s47.333 -44.5 79 -55.5s69.167 -16.5 112.5 -16.5c32 0 61.333 3.5 88 10.5s51.334 16.5 74.001 28.5l11 -57c-22.667 -12 -50 -22.5 -82 -31.5s-65 -13.5 -99 -13.5c-54.667 0 -101.667 7.66699 -141 23s-71.833 39.333 -97.5 72s-44.667 73.834 -57 123.501
s-18.5 109.167 -18.5 178.5c0 66 6.16699 122.833 18.5 170.5s31.5 87 57.5 118s58.833 53.833 98.5 68.5s86.834 22 141.501 22c16 0 32.167 -1 48.5 -3s32.333 -4.66699 48 -8s30.167 -7.16602 43.5 -11.499s25 -8.83301 35 -13.5z" />
    <glyph glyph-name="afii10036" unicode="&#xd2;" horiz-adv-x="575" 
d="M320 686v-686h-66v686h-235l2 64h534l1 -64h-236z" />
    <glyph glyph-name="afii10036" unicode="&#x422;" horiz-adv-x="575" 
d="M320 686v-686h-66v686h-235l2 64h534l1 -64h-236z" />
    <glyph glyph-name="afii10039" unicode="&#xd5;" horiz-adv-x="689" 
d="M392 390l250 -390h-78l-221 351l-216 -351h-79l245 389l-236 361h81l205 -323l203 323h78z" />
    <glyph glyph-name="afii10039" unicode="&#x425;" horiz-adv-x="689" 
d="M392 390l250 -390h-78l-221 351l-216 -351h-79l245 389l-236 361h81l205 -323l203 323h78z" />
    <glyph glyph-name="afii10045" unicode="&#xdb;" horiz-adv-x="846" 
d="M594 223c0 -78.667 -19.333 -135.5 -58 -170.5s-100.667 -52.5 -186 -52.5h-239v750h66v-303h173c86 0 148.167 -18.5 186.5 -55.5s57.5 -93.167 57.5 -168.5zM527 223c0 32 -3.66699 58.667 -11 80s-18.5 38.5 -33.5 51.5s-33.5 22.167 -55.5 27.5s-47.667 8 -77 8h-173
v-331h173c60 0 104.5 12.333 133.5 37s43.5 67 43.5 127zM665 0h66v750h-66v-750z" />
    <glyph glyph-name="afii10045" unicode="&#x42b;" horiz-adv-x="846" 
d="M594 223c0 -78.667 -19.333 -135.5 -58 -170.5s-100.667 -52.5 -186 -52.5h-239v750h66v-303h173c86 0 148.167 -18.5 186.5 -55.5s57.5 -93.167 57.5 -168.5zM527 223c0 32 -3.66699 58.667 -11 80s-18.5 38.5 -33.5 51.5s-33.5 22.167 -55.5 27.5s-47.667 8 -77 8h-173
v-331h173c60 0 104.5 12.333 133.5 37s43.5 67 43.5 127zM665 0h66v750h-66v-750z" />
    <glyph glyph-name="afii10046" unicode="&#xdc;" horiz-adv-x="646" 
d="M594 223c0 -78.667 -19.333 -135.5 -58 -170.5s-100.667 -52.5 -186 -52.5h-239v750h66v-303h173c86 0 148.167 -18.5 186.5 -55.5s57.5 -93.167 57.5 -168.5zM527 223c0 32 -3.66699 58.667 -11 80s-18.5 38.5 -33.5 51.5s-33.5 22.167 -55.5 27.5s-47.667 8 -77 8h-173
v-331h173c60 0 104.5 12.333 133.5 37s43.5 67 43.5 127z" />
    <glyph glyph-name="afii10046" unicode="&#x42c;" horiz-adv-x="646" 
d="M594 223c0 -78.667 -19.333 -135.5 -58 -170.5s-100.667 -52.5 -186 -52.5h-239v750h66v-303h173c86 0 148.167 -18.5 186.5 -55.5s57.5 -93.167 57.5 -168.5zM527 223c0 32 -3.66699 58.667 -11 80s-18.5 38.5 -33.5 51.5s-33.5 22.167 -55.5 27.5s-47.667 8 -77 8h-173
v-331h173c60 0 104.5 12.333 133.5 37s43.5 67 43.5 127z" />
    <glyph glyph-name="afii10047" unicode="&#xdd;" horiz-adv-x="611" 
d="M74 726c10 4.66699 21.665 9.16895 34.998 13.502s27.833 8.16602 43.5 11.499s31.667 6 48 8s32.5 3 48.5 3c108.667 0 188.5 -30.333 239.5 -91s76.5 -156.667 76.5 -288c0 -69.333 -6.16699 -128.833 -18.5 -178.5s-31.333 -90.834 -57 -123.501
s-58.167 -56.667 -97.5 -72s-86.333 -23 -141 -23c-34 0 -67 4.5 -99 13.5s-59.333 19.5 -82 31.5l11 57c22.667 -12 47.334 -21.5 74.001 -28.5s56 -10.5 88 -10.5c42 0 78.667 5.16699 110 15.5s57.5 27.833 78.5 52.5s36.833 57.167 47.5 97.5s16.667 90.5 18 150.5h-367
v56h367c-2 52 -8.66699 95.667 -20 131s-27.333 64 -48 86s-46.167 37.667 -76.5 47s-65.833 14 -106.5 14c-31.333 0 -61.166 -3.33301 -89.499 -10s-52.833 -14.667 -73.5 -24z" />
    <glyph glyph-name="afii10047" unicode="&#x42d;" horiz-adv-x="611" 
d="M74 726c10 4.66699 21.665 9.16895 34.998 13.502s27.833 8.16602 43.5 11.499s31.667 6 48 8s32.5 3 48.5 3c108.667 0 188.5 -30.333 239.5 -91s76.5 -156.667 76.5 -288c0 -69.333 -6.16699 -128.833 -18.5 -178.5s-31.333 -90.834 -57 -123.501
s-58.167 -56.667 -97.5 -72s-86.333 -23 -141 -23c-34 0 -67 4.5 -99 13.5s-59.333 19.5 -82 31.5l11 57c22.667 -12 47.334 -21.5 74.001 -28.5s56 -10.5 88 -10.5c42 0 78.667 5.16699 110 15.5s57.5 27.833 78.5 52.5s36.833 57.167 47.5 97.5s16.667 90.5 18 150.5h-367
v56h367c-2 52 -8.66699 95.667 -20 131s-27.333 64 -48 86s-46.167 37.667 -76.5 47s-65.833 14 -106.5 14c-31.333 0 -61.166 -3.33301 -89.499 -10s-52.833 -14.667 -73.5 -24z" />
    <glyph glyph-name="afii10048" unicode="&#xde;" horiz-adv-x="1013" 
d="M928 375c0 -70 -5.33398 -129.501 -16.001 -178.501s-27.834 -89.167 -51.501 -120.5s-54.5 -54.166 -92.5 -68.499s-84.333 -21.5 -139 -21.5c-53.333 0 -98.833 7 -136.5 21s-68.5 36.333 -92.5 67s-41.5 69.834 -52.5 117.501s-16.833 105.5 -17.5 173.5h-139v-365
h-66v750h66v-329h140c2 60.667 9.16699 112.667 21.5 156s30.333 78.666 54 105.999s53.834 47.333 90.501 60s80.667 19 132 19c54.667 0 101 -7.16699 139 -21.5s68.833 -37 92.5 -68s40.834 -71 51.501 -120s16 -108.167 16 -177.5zM859.999 374.999
c0 63.333 -4.33691 115.833 -13.0039 157.5s-22.167 74.834 -40.5 99.501s-42.166 42 -71.499 52s-64.666 15 -105.999 15s-76.666 -5 -105.999 -15s-53.166 -27.333 -71.499 -52s-31.833 -57.834 -40.5 -99.501s-13 -94.167 -13 -157.5s4.33301 -115.833 13 -157.5
s22.334 -74.834 41.001 -99.501s42.667 -42.167 72 -52.5s64.666 -15.5 105.999 -15.5s76.5 5.16699 105.5 15.5s52.833 27.833 71.5 52.5s32.167 57.834 40.5 99.501s12.5 94.167 12.5 157.5z" />
    <glyph glyph-name="afii10048" unicode="&#x42e;" horiz-adv-x="1013" 
d="M928 375c0 -70 -5.33398 -129.501 -16.001 -178.501s-27.834 -89.167 -51.501 -120.5s-54.5 -54.166 -92.5 -68.499s-84.333 -21.5 -139 -21.5c-53.333 0 -98.833 7 -136.5 21s-68.5 36.333 -92.5 67s-41.5 69.834 -52.5 117.501s-16.833 105.5 -17.5 173.5h-139v-365
h-66v750h66v-329h140c2 60.667 9.16699 112.667 21.5 156s30.333 78.666 54 105.999s53.834 47.333 90.501 60s80.667 19 132 19c54.667 0 101 -7.16699 139 -21.5s68.833 -37 92.5 -68s40.834 -71 51.501 -120s16 -108.167 16 -177.5zM859.999 374.999
c0 63.333 -4.33691 115.833 -13.0039 157.5s-22.167 74.834 -40.5 99.501s-42.166 42 -71.499 52s-64.666 15 -105.999 15s-76.666 -5 -105.999 -15s-53.166 -27.333 -71.499 -52s-31.833 -57.834 -40.5 -99.501s-13 -94.167 -13 -157.5s4.33301 -115.833 13 -157.5
s22.334 -74.834 41.001 -99.501s42.667 -42.167 72 -52.5s64.666 -15.5 105.999 -15.5s76.5 5.16699 105.5 15.5s52.833 27.833 71.5 52.5s32.167 57.834 40.5 99.501s12.5 94.167 12.5 157.5z" />
    <glyph glyph-name="afii10049" unicode="&#xdf;" horiz-adv-x="652" 
d="M160 547c0 68.667 17.667 119.668 53 153.001s91 50 167 50h243v-750h-66v337h-174l-192 -337h-80l209 349c-52 6 -91.667 25.167 -119 57.5s-41 79.166 -41 140.499zM228 544.001c0 -54.667 12.667 -93.832 38 -117.499s65.333 -35.5 120 -35.5h171v300h-177
c-52.667 0 -91.167 -11.333 -115.5 -34s-36.5 -60.334 -36.5 -113.001z" />
    <glyph glyph-name="afii10049" unicode="&#x42f;" horiz-adv-x="652" 
d="M160 547c0 68.667 17.667 119.668 53 153.001s91 50 167 50h243v-750h-66v337h-174l-192 -337h-80l209 349c-52 6 -91.667 25.167 -119 57.5s-41 79.166 -41 140.499zM228 544.001c0 -54.667 12.667 -93.832 38 -117.499s65.333 -35.5 120 -35.5h171v300h-177
c-52.667 0 -91.167 -11.333 -115.5 -34s-36.5 -60.334 -36.5 -113.001z" />
    <glyph glyph-name="afii10065" unicode="&#xe0;" horiz-adv-x="568" 
d="M432 83l-3.00098 1.00098c-16 -28 -40.333 -50.5 -73 -67.5s-69.667 -25.5 -111 -25.5c-26.667 0 -51.167 3.5 -73.5 10.5s-41.5 17.833 -57.5 32.5s-28.333 33.667 -37 57s-13 51.666 -13 84.999c0 56.667 17.333 100.167 52 130.5s88.334 45.5 161.001 45.5
c26.667 0 52.834 -2.5 78.501 -7.5s48.5 -11.167 68.5 -18.5v73c0 56 -12.167 94.667 -36.5 116s-62.5 32 -114.5 32c-30.667 0 -59.834 -2.83301 -87.501 -8.5s-54.167 -15.167 -79.5 -28.5l-7 53c56 26 117.333 39 184 39c36 0 66.833 -3.83301 92.5 -11.5
s46.5 -20 62.5 -37s27.833 -39 35.5 -66s11.5 -59.5 11.5 -97.5v-390h-46zM423.999 278.001c-7.33301 5.33301 -23.168 11.332 -47.501 17.999s-54.5 10 -90.5 10c-57.333 0 -99 -11.167 -125 -33.5s-39 -54.166 -39 -95.499c0 -25.333 3.5 -46.5 10.5 -63.5
s16.833 -30.667 29.5 -41s27.334 -17.833 44.001 -22.5s35 -7 55 -7c21.333 0 41.833 3.5 61.5 10.5s37 16 52 27s27 23.5 36 37.5s13.5 28 13.5 42v118z" />
    <glyph glyph-name="afii10065" unicode="&#x430;" horiz-adv-x="568" 
d="M432 83l-3.00098 1.00098c-16 -28 -40.333 -50.5 -73 -67.5s-69.667 -25.5 -111 -25.5c-26.667 0 -51.167 3.5 -73.5 10.5s-41.5 17.833 -57.5 32.5s-28.333 33.667 -37 57s-13 51.666 -13 84.999c0 56.667 17.333 100.167 52 130.5s88.334 45.5 161.001 45.5
c26.667 0 52.834 -2.5 78.501 -7.5s48.5 -11.167 68.5 -18.5v73c0 56 -12.167 94.667 -36.5 116s-62.5 32 -114.5 32c-30.667 0 -59.834 -2.83301 -87.501 -8.5s-54.167 -15.167 -79.5 -28.5l-7 53c56 26 117.333 39 184 39c36 0 66.833 -3.83301 92.5 -11.5
s46.5 -20 62.5 -37s27.833 -39 35.5 -66s11.5 -59.5 11.5 -97.5v-390h-46zM423.999 278.001c-7.33301 5.33301 -23.168 11.332 -47.501 17.999s-54.5 10 -90.5 10c-57.333 0 -99 -11.167 -125 -33.5s-39 -54.166 -39 -95.499c0 -25.333 3.5 -46.5 10.5 -63.5
s16.833 -30.667 29.5 -41s27.334 -17.833 44.001 -22.5s35 -7 55 -7c21.333 0 41.833 3.5 61.5 10.5s37 16 52 27s27 23.5 36 37.5s13.5 28 13.5 42v118z" />
    <glyph glyph-name="afii10070" unicode="&#xe5;" horiz-adv-x="573" 
d="M320 -12c-47.333 0 -87.5 6.33496 -120.5 19.002s-60.167 32.334 -81.5 59.001s-36.833 60.5 -46.5 101.5s-14.5 90.167 -14.5 147.5c0 93.333 19.5 164.166 58.5 212.499s97.833 72.5 176.5 72.5c33.333 0 63.833 -5.16699 91.5 -15.5s51.5 -26.5 71.5 -48.5
s35.5 -50.167 46.5 -84.5s16.5 -75.5 16.5 -123.5c0 -4.66699 -0.166992 -9.83398 -0.5 -15.501s-0.833008 -10.5 -1.5 -14.5h-397c0.666992 -47.333 5.16699 -87.166 13.5 -119.499s21 -58.333 38 -78s38.333 -33.834 64 -42.501s56.167 -13 91.5 -13
c31.333 0 60 3.66699 86 11s51.667 17.666 77 30.999l8 -53c-25.333 -14.667 -52.5 -26 -81.5 -34s-60.833 -12 -95.5 -12zM462 341.002c-0.666992 37.333 -5.33301 69.001 -14 95.001s-20.5 47.167 -35.5 63.5s-32.667 28.166 -53 35.499s-42.833 11 -67.5 11
c-58.667 0 -101.5 -17 -128.5 -51s-42.167 -85.333 -45.5 -154h344z" />
    <glyph glyph-name="afii10070" unicode="&#x435;" horiz-adv-x="573" 
d="M320 -12c-47.333 0 -87.5 6.33496 -120.5 19.002s-60.167 32.334 -81.5 59.001s-36.833 60.5 -46.5 101.5s-14.5 90.167 -14.5 147.5c0 93.333 19.5 164.166 58.5 212.499s97.833 72.5 176.5 72.5c33.333 0 63.833 -5.16699 91.5 -15.5s51.5 -26.5 71.5 -48.5
s35.5 -50.167 46.5 -84.5s16.5 -75.5 16.5 -123.5c0 -4.66699 -0.166992 -9.83398 -0.5 -15.501s-0.833008 -10.5 -1.5 -14.5h-397c0.666992 -47.333 5.16699 -87.166 13.5 -119.499s21 -58.333 38 -78s38.333 -33.834 64 -42.501s56.167 -13 91.5 -13
c31.333 0 60 3.66699 86 11s51.667 17.666 77 30.999l8 -53c-25.333 -14.667 -52.5 -26 -81.5 -34s-60.833 -12 -95.5 -12zM462 341.002c-0.666992 37.333 -5.33301 69.001 -14 95.001s-20.5 47.167 -35.5 63.5s-32.667 28.166 -53 35.499s-42.833 11 -67.5 11
c-58.667 0 -101.5 -17 -128.5 -51s-42.167 -85.333 -45.5 -154h344z" />
    <glyph glyph-name="afii10076" unicode="&#xea;" horiz-adv-x="573" 
d="M162 346h94l206 245h78l-229 -270l239 -321h-77l-217 292h-94v-292h-61v591h61v-245z" />
    <glyph glyph-name="afii10076" unicode="&#x43a;" horiz-adv-x="573" 
d="M162 346h94l206 245h78l-229 -270l239 -321h-77l-217 292h-94v-292h-61v591h61v-245z" />
    <glyph glyph-name="afii10080" unicode="&#xee;" horiz-adv-x="609" 
d="M552 294c0 -55.333 -4.66504 -102.5 -13.998 -141.5s-24 -70.667 -44 -95s-45.5 -42.166 -76.5 -53.499s-68.167 -17 -111.5 -17s-80.5 5.66699 -111.5 17s-56.833 29.166 -77.5 53.499s-35.834 56 -45.501 95s-14.5 86.167 -14.5 141.5c0 54.667 5 101.334 15 140.001
s25.167 70.334 45.5 95.001s46.166 42.667 77.499 54s68.333 17 111 17c43.333 0 80.5 -5.66699 111.5 -17s56.5 -29.333 76.5 -54s34.667 -56.334 44 -95.001s14 -85.334 14 -140.001zM120.002 294c0 -46 3.5 -85.168 10.5 -117.501s18 -58.666 33 -78.999
s34.167 -35 57.5 -44s51.666 -13.5 84.999 -13.5c32.667 0 60.667 4.66699 84 14s42.333 24 57 44s25.334 46.167 32.001 78.5s10 71.5 10 117.5s-3.33301 85 -10 117s-17.334 58 -32.001 78s-33.667 34.5 -57 43.5s-51.333 13.5 -84 13.5
c-33.333 0 -61.666 -4.5 -84.999 -13.5s-42.5 -23.5 -57.5 -43.5s-26 -46 -33 -78s-10.5 -71 -10.5 -117z" />
    <glyph glyph-name="afii10080" unicode="&#x43e;" horiz-adv-x="609" 
d="M552 294c0 -55.333 -4.66504 -102.5 -13.998 -141.5s-24 -70.667 -44 -95s-45.5 -42.166 -76.5 -53.499s-68.167 -17 -111.5 -17s-80.5 5.66699 -111.5 17s-56.833 29.166 -77.5 53.499s-35.834 56 -45.501 95s-14.5 86.167 -14.5 141.5c0 54.667 5 101.334 15 140.001
s25.167 70.334 45.5 95.001s46.166 42.667 77.499 54s68.333 17 111 17c43.333 0 80.5 -5.66699 111.5 -17s56.5 -29.333 76.5 -54s34.667 -56.334 44 -95.001s14 -85.334 14 -140.001zM120.002 294c0 -46 3.5 -85.168 10.5 -117.501s18 -58.666 33 -78.999
s34.167 -35 57.5 -44s51.666 -13.5 84.999 -13.5c32.667 0 60.667 4.66699 84 14s42.333 24 57 44s25.334 46.167 32.001 78.5s10 71.5 10 117.5s-3.33301 85 -10 117s-17.334 58 -32.001 78s-33.667 34.5 -57 43.5s-51.333 13.5 -84 13.5
c-33.333 0 -61.666 -4.5 -84.999 -13.5s-42.5 -23.5 -57.5 -43.5s-26 -46 -33 -78s-10.5 -71 -10.5 -117z" />
    <glyph glyph-name="afii10082" unicode="&#xf0;" horiz-adv-x="622" 
d="M565 296c0 -56 -5.33398 -103.499 -16.001 -142.499s-26.167 -70.833 -46.5 -95.5s-44.833 -42.5 -73.5 -53.5s-61 -16.5 -97 -16.5c-34 0 -66 5.66699 -96 17s-55.667 31 -77 59l-2 -1l1 -81v-126h-63v731l45 4l13 -68h3c20 24 45.833 42.833 77.5 56.5
s66.834 20.5 105.501 20.5c36 0 68 -5 96 -15s51.667 -26.833 71 -50.5s34 -54.834 44 -93.501s15 -87 15 -145zM501.999 296.001c0 48 -4 87.8301 -12 119.497s-19.5 56.834 -34.5 75.501s-33.333 31.834 -55 39.501s-46.5 11.5 -74.5 11.5
c-75.333 0 -131.333 -27.333 -168 -82v-332c13.333 -22.667 33.333 -42.667 60 -60s60.667 -26 102 -26c26.667 0 51.167 3.83301 73.5 11.5s41.5 21 57.5 40s28.5 44.833 37.5 77.5s13.5 74.334 13.5 125.001z" />
    <glyph glyph-name="afii10082" unicode="&#x440;" horiz-adv-x="622" 
d="M565 296c0 -56 -5.33398 -103.499 -16.001 -142.499s-26.167 -70.833 -46.5 -95.5s-44.833 -42.5 -73.5 -53.5s-61 -16.5 -97 -16.5c-34 0 -66 5.66699 -96 17s-55.667 31 -77 59l-2 -1l1 -81v-126h-63v731l45 4l13 -68h3c20 24 45.833 42.833 77.5 56.5
s66.834 20.5 105.501 20.5c36 0 68 -5 96 -15s51.667 -26.833 71 -50.5s34 -54.834 44 -93.501s15 -87 15 -145zM501.999 296.001c0 48 -4 87.8301 -12 119.497s-19.5 56.834 -34.5 75.501s-33.333 31.834 -55 39.501s-46.5 11.5 -74.5 11.5
c-75.333 0 -131.333 -27.333 -168 -82v-332c13.333 -22.667 33.333 -42.667 60 -60s60.667 -26 102 -26c26.667 0 51.167 3.83301 73.5 11.5s41.5 21 57.5 40s28.5 44.833 37.5 77.5s13.5 74.334 13.5 125.001z" />
    <glyph glyph-name="afii10083" unicode="&#xf1;" horiz-adv-x="501" 
d="M442 511c-18.667 9.33301 -39.168 16.834 -61.501 22.501s-45.166 8.5 -68.499 8.5c-34.667 0 -64.167 -4.5 -88.5 -13.5s-44.166 -23.333 -59.499 -43s-26.5 -44.667 -33.5 -75s-10.5 -66.5 -10.5 -108.5c0 -48 4 -88.333 12 -121s20 -59.334 36 -80.001
s35.833 -35.5 59.5 -44.5s51.167 -13.5 82.5 -13.5c25.333 0 49.666 3.5 72.999 10.5s44.333 17.167 63 30.5l6 -53c-17.333 -13.333 -39.5 -24 -66.5 -32s-55.833 -12 -86.5 -12c-81.333 0 -142 24.667 -182 74s-60 129.666 -60 240.999c0 100.667 19.333 175.5 58 224.5
s100.334 73.5 185.001 73.5c28 0 54.667 -3.16699 80 -9.5s47.666 -14.166 66.999 -23.499z" />
    <glyph glyph-name="afii10083" unicode="&#x441;" horiz-adv-x="501" 
d="M442 511c-18.667 9.33301 -39.168 16.834 -61.501 22.501s-45.166 8.5 -68.499 8.5c-34.667 0 -64.167 -4.5 -88.5 -13.5s-44.166 -23.333 -59.499 -43s-26.5 -44.667 -33.5 -75s-10.5 -66.5 -10.5 -108.5c0 -48 4 -88.333 12 -121s20 -59.334 36 -80.001
s35.833 -35.5 59.5 -44.5s51.167 -13.5 82.5 -13.5c25.333 0 49.666 3.5 72.999 10.5s44.333 17.167 63 30.5l6 -53c-17.333 -13.333 -39.5 -24 -66.5 -32s-55.833 -12 -86.5 -12c-81.333 0 -142 24.667 -182 74s-60 129.666 -60 240.999c0 100.667 19.333 175.5 58 224.5
s100.334 73.5 185.001 73.5c28 0 54.667 -3.16699 80 -9.5s47.666 -14.166 66.999 -23.499z" />
    <glyph glyph-name="afii10085" unicode="&#xf3;" horiz-adv-x="630" 
d="M190 -105c24 0 44.666 6.00098 61.999 18.001s33.333 34.667 48 68l4 13l-262 596h73l190 -461l30 -75h3l24 77l158 459h67l-225 -612c-20 -50.667 -43 -85.5 -69 -104.5s-57 -28.5 -93 -28.5c-32 0 -60.667 6.33301 -86 19l8 49
c11.333 -6.66699 22.833 -11.334 34.5 -14.001s22.834 -4 33.501 -4z" />
    <glyph glyph-name="afii10085" unicode="&#x443;" horiz-adv-x="630" 
d="M190 -105c24 0 44.666 6.00098 61.999 18.001s33.333 34.667 48 68l4 13l-262 596h73l190 -461l30 -75h3l24 77l158 459h67l-225 -612c-20 -50.667 -43 -85.5 -69 -104.5s-57 -28.5 -93 -28.5c-32 0 -60.667 6.33301 -86 19l8 49
c11.333 -6.66699 22.833 -11.334 34.5 -14.001s22.834 -4 33.501 -4z" />
    <glyph glyph-name="afii10087" unicode="&#xf5;" horiz-adv-x="590" 
d="M292 269l-170 -269h-72l202 300l-197 290h74l167 -258l165 258h71l-193 -288l200 -302h-75z" />
    <glyph glyph-name="afii10087" unicode="&#x445;" horiz-adv-x="590" 
d="M292 269l-170 -269h-72l202 300l-197 290h74l167 -258l165 258h71l-193 -288l200 -302h-75z" />
    <glyph glyph-name="afii10095" unicode="&#xfd;" horiz-adv-x="501" 
d="M167 298l-0.000976562 43h221c-4 70.667 -20.833 121.834 -50.5 153.501s-76.5 47.5 -140.5 47.5c-23.333 0 -46.166 -2.83301 -68.499 -8.5s-42.833 -13.167 -61.5 -22.5l-5 56c19.333 9.33301 41.666 17.166 66.999 23.499s52 9.5 80 9.5
c84.667 0 146.334 -24.5 185.001 -73.5s58 -123.833 58 -224.5c0 -111.333 -20.167 -191.666 -60.5 -240.999s-100.833 -74 -181.5 -74c-30.667 0 -59.5 4 -86.5 12s-49.167 18.667 -66.5 32l6 53c18.667 -13.333 39.667 -23.5 63 -30.5s47.666 -10.5 72.999 -10.5
c30.667 0 57.834 4.5 81.501 13.5s43.5 23.5 59.5 43.5s28.167 46.167 36.5 78.5s12.5 72.166 12.5 119.499h-222z" />
    <glyph glyph-name="afii10095" unicode="&#x44d;" horiz-adv-x="501" 
d="M167 298l-0.000976562 43h221c-4 70.667 -20.833 121.834 -50.5 153.501s-76.5 47.5 -140.5 47.5c-23.333 0 -46.166 -2.83301 -68.499 -8.5s-42.833 -13.167 -61.5 -22.5l-5 56c19.333 9.33301 41.666 17.166 66.999 23.499s52 9.5 80 9.5
c84.667 0 146.334 -24.5 185.001 -73.5s58 -123.833 58 -224.5c0 -111.333 -20.167 -191.666 -60.5 -240.999s-100.833 -74 -181.5 -74c-30.667 0 -59.5 4 -86.5 12s-49.167 18.667 -66.5 32l6 53c18.667 -13.333 39.667 -23.5 63 -30.5s47.666 -10.5 72.999 -10.5
c30.667 0 57.834 4.5 81.501 13.5s43.5 23.5 59.5 43.5s28.167 46.167 36.5 78.5s12.5 72.166 12.5 119.499h-222z" />
    <glyph glyph-name="IJ" unicode="&#x132;" horiz-adv-x="847" 
d="M126 750h66v-750h-66v750zM736 239c0 -83.333 -21.168 -146.334 -63.501 -189.001s-102.833 -64 -181.5 -64c-33.333 0 -62.666 4.16699 -87.999 12.5s-47 19.5 -65 33.5l7 61c17.333 -14 37.5 -25 60.5 -33s49.167 -12 78.5 -12c58.667 0 104.167 15.833 136.5 47.5
s48.5 79.834 48.5 144.501v510h67v-511z" />
    <glyph glyph-name="ij" unicode="&#x133;" horiz-adv-x="567" 
d="M120 0v587l61 5v-592h-61zM198 753c0 -28 -15.667 -42 -47 -42c-15.333 0 -27 3 -35 9s-12 17 -12 33c0 28 15.667 42 47 42s47 -14 47 -42zM461 -17c0 -51.333 -11.668 -86.999 -35.001 -106.999s-53.333 -30 -90 -30c-10 0 -20.667 1 -32 3s-21.333 4.66699 -30 8l5 48
c6.66699 -2.66699 13.834 -4.83398 21.501 -6.50098s15.167 -2.5 22.5 -2.5c23.333 0 42 6.83301 56 20.5s21 36.167 21 67.5v603l61 5v-609zM476.999 755.001c0 -28 -15.667 -42 -47 -42c-15.333 0 -27 3 -35 9s-12 17 -12 33c0 28 15.667 42 47 42s47 -14 47 -42z" />
    <glyph glyph-name="Lacute" unicode="&#x139;" horiz-adv-x="576" 
d="M549 64l-3 -64h-435v750h66v-686h372zM398 759c14.667 0 25.167 -3.5 31.5 -10.5s9.5 -16.167 9.5 -27.5c0 -6 -1.83301 -13.5 -5.5 -22.5s-8.5 -18.833 -14.5 -29.5s-12.833 -21.667 -20.5 -33s-15.5 -22 -23.5 -32l-17 7l29 80c-20 4 -30 15.333 -30 34
c0 9.33301 3 17.333 9 24s16.667 10 32 10z" />
    <glyph glyph-name="zdotaccent" unicode="&#x17c;" horiz-adv-x="544" 
d="M189 120l-46 -63l1 -3h335l-2 -54h-407v44l287 425l46 64l-1 2h-319l2 55h390v-45zM328 755c0 -28 -15.667 -42 -47 -42c-15.333 0 -27 3 -35 9s-12 17 -12 33c0 28 15.667 42 47 42s47 -14 47 -42z" />
    <glyph glyph-name="Zcaron" unicode="&#x17d;" horiz-adv-x="616" 
d="M55 0v45l376 575l45 65l-1 2h-407l3 63h485v-52l-373 -568l-45 -64l1 -3h418l-3 -63h-499zM277 800l-119 115h63l88 -86l90 86h62l-119 -115h-65z" />
    <glyph glyph-name="zcaron" unicode="&#x17e;" horiz-adv-x="544" 
d="M189 120l-46 -63l1 -3h335l-2 -54h-407v44l287 425l46 64l-1 2h-319l2 55h390v-45zM252 665l-106 142h52l82 -112l82 112h53l-107 -142h-56z" />
    <glyph glyph-name="AEacute" unicode="&#x1fc;" horiz-adv-x="1050" 
d="M581 688l32 -267h316v-56h-309l36 -303h341l-3 -62h-396l-23 198h-331l-108 -198h-80l425 750h504l2 -62h-406zM479 629l-203 -372h292l-42 363l-7 80l-3 1zM810 915l-125 -115h-52l87 115h90z" />
    <glyph glyph-name="aeacute" unicode="&#x1fd;" horiz-adv-x="933" 
d="M283 600c50 0 89.334 -8.16797 118.001 -24.501s48.667 -42.833 60 -79.5h2c19.333 34.667 45.166 60.667 77.499 78s70.5 26 114.5 26c32 0 61.667 -5.16699 89 -15.5s50.833 -26.5 70.5 -48.5s35 -50.167 46 -84.5s16.5 -75.5 16.5 -123.5v-15.5
c0 -5.66699 -0.333008 -10.5 -1 -14.5h-396c0.666992 -47.333 5.33398 -87.166 14.001 -119.499s21.5 -58.333 38.5 -78s38.167 -33.834 63.5 -42.501s55.333 -13 90 -13c31.333 0 60 3.83301 86 11.5s51.667 18.167 77 31.5l8 -54c-25.333 -14.667 -52.5 -26 -81.5 -34
s-61.167 -12 -96.5 -12c-60.667 0 -109.167 10.333 -145.5 31s-62.833 52.667 -79.5 96h-3c-14.667 -39.333 -39.5 -70.166 -74.5 -92.499s-77.167 -33.5 -126.5 -33.5c-56 0 -101 14.333 -135 43s-51 76 -51 142c0 56.667 17.333 100 52 130s88.334 45 161.001 45
c28 0 54.667 -2.66699 80 -8s47.666 -12 66.999 -20v76c0 56 -12.167 94.667 -36.5 116s-62.5 32 -114.5 32c-30.667 0 -59.834 -2.83301 -87.501 -8.5s-54.167 -15.167 -79.5 -28.5l-7 53c56 26 117.333 39 184 39zM424.001 275.999
c-7.33301 5.33301 -23.168 11.334 -47.501 18.001s-54.5 10 -90.5 10c-57.333 0 -99.166 -11.167 -125.499 -33.5s-39.5 -54.166 -39.5 -95.499c0 -25.333 3.66699 -46.5 11 -63.5s17.166 -30.667 29.499 -41s27 -17.833 44 -22.5s35.5 -7 55.5 -7
c24 0 45.833 3.66699 65.5 11s36.834 17.166 51.501 29.499s26 27.166 34 44.499s12 36 12 56v94zM821.999 341c-0.666992 37.333 -5.33203 69.001 -13.999 95.001s-20.5 47.167 -35.5 63.5s-32.833 28.166 -53.5 35.499s-43 11 -67 11c-57.333 0 -99.833 -17 -127.5 -51
s-42.834 -85.333 -45.501 -154h343zM584.001 807.001l-110 -142h-50l80 142h80z" />
    <glyph glyph-name="Euro" unicode="&#x2c6;" horiz-adv-x="687" 
d="M479 299l-288.003 0.00195312c8.66699 -89.333 33.334 -153.5 74.001 -192.5s98.667 -58.5 174 -58.5c32.667 0 64.834 4.66699 96.501 14s61.5 22.666 89.5 39.999l7 -52c-25.333 -18 -56.166 -32.167 -92.499 -42.5s-73.833 -15.5 -112.5 -15.5
c-96 0 -167.667 25 -215 75s-75.333 127.333 -84 232h-91v42h89c-0.666992 7.33301 -1 15 -1 23v24v24h-88v44h91c9.33301 98 39.5 172.667 90.5 224s122.167 77 213.5 77c34.667 0 68.334 -3.5 101.001 -10.5s59.667 -16.5 81 -28.5l-14 -53
c-26 11.333 -50.833 19.666 -74.5 24.999s-51.834 8 -84.501 8c-75.333 0 -133.5 -20.333 -174.5 -61s-66.167 -101 -75.5 -181h338l-11 -44h-331v-29v-21.5c0 -7 0.333008 -13.833 1 -20.5h302z" />
    <glyph glyph-name="caron" unicode="&#x2c7;" horiz-adv-x="395" 
d="M170 665l-106 142h52l82 -112l82 112h53l-107 -142h-56z" />
    <glyph glyph-name="breve" unicode="&#x2d8;" horiz-adv-x="395" 
d="M329 807c0 -46 -10.666 -82.333 -31.999 -109s-54.333 -40 -99 -40s-77.834 12.833 -99.501 38.5s-32.5 62.5 -32.5 110.5h46c0 -37.333 8 -65.166 24 -83.499s36.667 -27.5 62 -27.5s45.833 9.16699 61.5 27.5s23.5 46.166 23.5 83.499h46z" />
    <glyph glyph-name="ogonek" unicode="&#x2db;" horiz-adv-x="395" 
d="M239 -178c-17.333 0 -32.1699 2.16699 -44.5029 6.5s-22.166 10 -29.499 17s-12.666 15.167 -15.999 24.5s-5 19.333 -5 30c0 23.333 7.83301 45 23.5 65s37.834 35.667 66.501 47l26 -12c-23.333 -10 -40.5 -22.833 -51.5 -38.5s-16.5 -32.167 -16.5 -49.5
c0 -14 4.83301 -25.5 14.5 -34.5s25.5 -13.5 47.5 -13.5c24 0 45.667 5.33301 65 16l6 -35c-25.333 -15.333 -54 -23 -86 -23z" />
    <glyph glyph-name="hungarumlaut" unicode="&#x2dd;" horiz-adv-x="395" 
d="M265 807l-108 -142h-43l79 142h72zM405 807l-111 -142h-49l87 142h73z" />
    <glyph glyph-name="Alpha" unicode="&#x391;" horiz-adv-x="698" 
d="M528 198h-361l-71 -198h-71l285 750h78l285 -750h-74zM322 624l-133 -367h318l-131 367l-25 77h-3z" />
    <glyph glyph-name="Beta" unicode="&#x392;" horiz-adv-x="684" 
d="M612 210c0 -33.333 -4.16602 -63.001 -12.499 -89.001s-21.5 -48 -39.5 -66s-41.333 -31.667 -70 -41s-63.334 -14 -104.001 -14h-275v750h260c70 0 122.333 -15 157 -45s52 -76.333 52 -139c0 -49.333 -10.333 -87.333 -31 -114s-47 -44.667 -79 -54v-2
c44 -9.33301 78.667 -28.666 104 -57.999s38 -72 38 -128zM547.001 214.999c0 51.333 -13.5 89 -40.5 113s-68.167 36 -123.5 36h-209v-306h213c50 0 89.167 11.667 117.5 35s42.5 64 42.5 122zM517.001 554.999c0 48.667 -12 83.5 -36 104.5s-61.333 31.5 -112 31.5h-194
v-273h202c93.333 0 140 45.667 140 137z" />
    <glyph glyph-name="Gamma" unicode="&#x393;" horiz-adv-x="595" 
d="M177 686v-686h-66v750h442l2 -64h-378z" />
    <glyph glyph-name="Epsilon" unicode="&#x395;" horiz-adv-x="626" 
d="M574 62l-3 -62h-460v750h442l3 -62h-380v-267h329v-56h-329v-303h398z" />
    <glyph glyph-name="Zeta" unicode="&#x396;" horiz-adv-x="616" 
d="M55 0v45l376 575l45 65l-1 2h-407l3 63h485v-52l-373 -568l-45 -64l1 -3h418l-3 -63h-499z" />
    <glyph glyph-name="Eta" unicode="&#x397;" horiz-adv-x="759" 
d="M582 0v361h-405v-361h-66v750h66v-327h405v327h66v-750h-66z" />
    <glyph glyph-name="Theta" unicode="&#x398;" horiz-adv-x="737" 
d="M668 375c0 -70 -5.33301 -129.498 -16 -178.498s-27.834 -89.167 -51.501 -120.5s-54.5 -54.166 -92.5 -68.499s-84.333 -21.5 -139 -21.5c-54 0 -100 7.16699 -138 21.5s-68.833 37.166 -92.5 68.499s-41 71.666 -52 120.999s-16.5 108.666 -16.5 177.999
s5.33301 128.5 16 177.5s28 89 52 120s55 53.667 93 68s84 21.5 138 21.5c54.667 0 101 -7.16699 139 -21.5s68.833 -37 92.5 -68s40.834 -71 51.501 -120s16 -108.167 16 -177.5zM600 375.002c0 63.333 -4.33691 115.833 -13.0039 157.5s-22.167 74.834 -40.5 99.501
s-42.166 42 -71.499 52s-64.666 15 -105.999 15s-76.666 -5 -105.999 -15s-53.166 -27.333 -71.499 -52s-31.833 -57.834 -40.5 -99.501s-13 -94.167 -13 -157.5s4.33301 -115.833 13 -157.5s22.334 -74.834 41.001 -99.501s42.667 -42.167 72 -52.5
s64.666 -15.5 105.999 -15.5s76.5 5.16699 105.5 15.5s52.833 27.833 71.5 52.5s32.167 57.834 40.5 99.501s12.5 94.167 12.5 157.5zM497.996 397.002v-48h-253v48h253z" />
    <glyph glyph-name="Iota" unicode="&#x399;" horiz-adv-x="316" 
d="M125 750h66v-750h-66v750z" />
    <glyph glyph-name="Kappa" unicode="&#x39a;" horiz-adv-x="694" 
d="M574 0l-272 363h-125v-363h-66v750h66v-328h126l258 328h82l-280 -354l297 -396h-86z" />
    <glyph glyph-name="Lambda" unicode="&#x39b;" horiz-adv-x="683" 
d="M584 0l-214 611l-25 76h-3l-25 -77l-214 -610h-73l273 750h77l273 -750h-69z" />
    <glyph glyph-name="Mu" unicode="&#x39c;" horiz-adv-x="911" 
d="M189 750l237 -583l29 -75h3l28 75l237 583h77v-750h-59v561l2 81l-3 1l-29 -76l-231 -567h-50l-231 564l-29 76l-2 -1l1 -81v-558h-58v750h78z" />
    <glyph glyph-name="Nu" unicode="&#x39d;" horiz-adv-x="764" 
d="M604 0l-388 580l-44 68l-2 -1l1 -81v-566h-60v750h65l375 -566l44 -68l2 1l-2 80l-1 553h59v-750h-49z" />
    <glyph glyph-name="Omicron" unicode="&#x39f;" horiz-adv-x="737" 
d="M668 375c0 -70 -5.33301 -129.498 -16 -178.498s-27.834 -89.167 -51.501 -120.5s-54.5 -54.166 -92.5 -68.499s-84.333 -21.5 -139 -21.5c-54 0 -100 7.16699 -138 21.5s-68.833 37.166 -92.5 68.499s-41 71.666 -52 120.999s-16.5 108.666 -16.5 177.999
s5.33301 128.5 16 177.5s28 89 52 120s55 53.667 93 68s84 21.5 138 21.5c54.667 0 101 -7.16699 139 -21.5s68.833 -37 92.5 -68s40.834 -71 51.501 -120s16 -108.167 16 -177.5zM600 375.002c0 63.333 -4.33691 115.833 -13.0039 157.5s-22.167 74.834 -40.5 99.501
s-42.166 42 -71.499 52s-64.666 15 -105.999 15s-76.666 -5 -105.999 -15s-53.166 -27.333 -71.499 -52s-31.833 -57.834 -40.5 -99.501s-13 -94.167 -13 -157.5s4.33301 -115.833 13 -157.5s22.334 -74.834 41.001 -99.501s42.667 -42.167 72 -52.5
s64.666 -15.5 105.999 -15.5s76.5 5.16699 105.5 15.5s52.833 27.833 71.5 52.5s32.167 57.834 40.5 99.501s12.5 94.167 12.5 157.5z" />
    <glyph glyph-name="Pi" unicode="&#x3a0;" horiz-adv-x="759" 
d="M582 0v688h-405v-688h-66v750h537v-750h-66z" />
    <glyph glyph-name="Rho" unicode="&#x3a1;" horiz-adv-x="646" 
d="M594 527c0 -75.333 -19.167 -131.5 -57.5 -168.5s-100.5 -55.5 -186.5 -55.5h-173v-303h-66v750h239c85.333 0 147.333 -17.5 186 -52.5s58 -91.833 58 -170.5zM527 527c0 60 -14.5 102.333 -43.5 127s-73.5 37 -133.5 37h-173v-331h173c29.333 0 55 2.66699 77 8
s40.5 14.5 55.5 27.5s26.167 30.167 33.5 51.5s11 48 11 80z" />
    <glyph glyph-name="Tau" unicode="&#x3a4;" horiz-adv-x="575" 
d="M320 686v-686h-66v686h-235l2 64h534l1 -64h-236z" />
    <glyph glyph-name="Upsilon" unicode="&#x3a5;" horiz-adv-x="656" 
d="M107 750l186 -351l36 -72h3l35 72l185 351h74l-263 -487v-263h-67v263l-266 487h77z" />
    <glyph glyph-name="Chi" unicode="&#x3a7;" horiz-adv-x="689" 
d="M392 390l250 -390h-78l-221 351l-216 -351h-79l245 389l-236 361h81l205 -323l203 323h78z" />
    <glyph glyph-name="beta" unicode="&#x3b2;" horiz-adv-x="622" 
d="M101 511c0 82 19.1641 144.498 57.4971 187.498s92.833 64.5 163.5 64.5c23.333 0 44.833 -3.33301 64.5 -10s36.667 -15.667 51 -27s25.5 -24.666 33.5 -39.999s12 -32 12 -50c0 -27.333 -7.83301 -51.666 -23.5 -72.999s-33 -40.333 -52 -57l-52 -45
c-15.667 -13.333 -23.5 -25.666 -23.5 -36.999c0 -10 6 -19.333 18 -28s26.833 -17.667 44.5 -27l58 -31.5c21 -11.667 40.333 -25.167 58 -40.5s32.5 -33.333 44.5 -54s18 -45 18 -73c0 -56.667 -19.5 -100.5 -58.5 -131.5s-90.833 -46.5 -155.5 -46.5
c-26.667 0 -55.167 3.33301 -85.5 10s-56.166 17.667 -77.499 33l6 56c19.333 -14 41.833 -24.667 67.5 -32s52.5 -11 80.5 -11c24 0 45.833 2.66699 65.5 8s36.667 13 51 23s25.5 22.5 33.5 37.5s12 32.167 12 51.5c0 23.333 -6 43.666 -18 60.999s-27.167 32.5 -45.5 45.5
s-38 24.833 -59 35.5s-40.667 21.334 -59 32.001s-33.5 21.834 -45.5 33.501s-18 25.167 -18 40.5c0 12.667 4 24.667 12 36s17.833 22.333 29.5 33s24.334 21.5 38.001 32.5s26.334 22.5 38.001 34.5s21.5 24.667 29.5 38s12 28 12 44c0 21.333 -9.5 39.166 -28.5 53.499
s-44.5 21.5 -76.5 21.5c-52.667 0 -92.5 -16.333 -119.5 -49s-40.5 -80.334 -40.5 -143.001v-717h-60v711z" />
    <glyph glyph-name="kappa" unicode="&#x3ba;" horiz-adv-x="573" 
d="M162 346h94l206 245h78l-229 -270l239 -321h-77l-217 292h-94v-292h-61v591h61v-245z" />
    <glyph glyph-name="omicron" unicode="&#x3bf;" horiz-adv-x="609" 
d="M552 294c0 -55.333 -4.66504 -102.5 -13.998 -141.5s-24 -70.667 -44 -95s-45.5 -42.166 -76.5 -53.499s-68.167 -17 -111.5 -17s-80.5 5.66699 -111.5 17s-56.833 29.166 -77.5 53.499s-35.834 56 -45.501 95s-14.5 86.167 -14.5 141.5c0 54.667 5 101.334 15 140.001
s25.167 70.334 45.5 95.001s46.166 42.667 77.499 54s68.333 17 111 17c43.333 0 80.5 -5.66699 111.5 -17s56.5 -29.333 76.5 -54s34.667 -56.334 44 -95.001s14 -85.334 14 -140.001zM120.002 294c0 -46 3.5 -85.168 10.5 -117.501s18 -58.666 33 -78.999
s34.167 -35 57.5 -44s51.666 -13.5 84.999 -13.5c32.667 0 60.667 4.66699 84 14s42.333 24 57 44s25.334 46.167 32.001 78.5s10 71.5 10 117.5s-3.33301 85 -10 117s-17.334 58 -32.001 78s-33.667 34.5 -57 43.5s-51.333 13.5 -84 13.5
c-33.333 0 -61.666 -4.5 -84.999 -13.5s-42.5 -23.5 -57.5 -43.5s-26 -46 -33 -78s-10.5 -71 -10.5 -117z" />
    <glyph glyph-name="pi" unicode="&#x3c0;" horiz-adv-x="672" 
d="M456 534h-242v-534h-60v534c-23.333 -1.33301 -43.333 -4 -60 -8s-30.667 -10.667 -42 -20l-21 49c13.333 11.333 31.666 20 54.999 26s54.333 9 93 9h441v-55h-105v-398c0 -34.667 5.33301 -58.334 16 -71.001s31.334 -19 62.001 -19v-50c-28 0 -50.833 2.33301 -68.5 7
s-31.5 12.5 -41.5 23.5s-17 25.333 -21 43s-6 39.834 -6 66.501v397z" />
    <glyph glyph-name="Wgrave" unicode="&#x1e80;" horiz-adv-x="996" 
d="M537 750l154 -605l19 -79h3l16 79l140 605h66l-183 -750h-84l-151 606l-17 80h-3l-18 -80l-152 -606h-82l-184 750h68l140 -606l17 -79h3l18 79l154 606h76zM477 802l-116 114h83l86 -114h-53z" />
    <glyph glyph-name="wgrave" unicode="&#x1e81;" horiz-adv-x="862" 
d="M467 590l123 -466l20 -78h3l16 79l110 465h61l-149 -590h-77l-119 447l-19 79h-3l-20 -79l-122 -447h-75l-154 590h62l112 -463l18 -79h3l19 78l124 464h67zM417 665l-103 142h79l73 -142h-49z" />
    <glyph glyph-name="Wacute" unicode="&#x1e82;" horiz-adv-x="996" 
d="M537 750l154 -605l19 -79h3l16 79l140 605h66l-183 -750h-84l-151 606l-17 80h-3l-18 -80l-152 -606h-82l-184 750h68l140 -606l17 -79h3l18 79l154 606h76zM643 915l-125 -115h-52l87 115h90z" />
    <glyph glyph-name="wdieresis" unicode="&#x1e85;" horiz-adv-x="862" 
d="M467 590l123 -466l20 -78h3l16 79l110 465h61l-149 -590h-77l-119 447l-19 79h-3l-20 -79l-122 -447h-75l-154 590h62l112 -463l18 -79h3l19 78l124 464h67zM387 756c0 -25.333 -11.667 -38 -35 -38c-11.333 0 -20 2.83301 -26 8.5s-9 15.5 -9 29.5c0 12 3 21.5 9 28.5
s14.667 10.5 26 10.5c23.333 0 35 -13 35 -39zM536 756c0 -25.333 -11.667 -38 -35 -38c-11.333 0 -20 2.83301 -26 8.5s-9 15.5 -9 29.5c0 12 3 21.5 9 28.5s14.667 10.5 26 10.5c23.333 0 35 -13 35 -39z" />
    <glyph glyph-name="Ygrave" unicode="&#x1ef2;" horiz-adv-x="656" 
d="M107 750l186 -351l36 -72h3l35 72l185 351h74l-263 -487v-263h-67v263l-266 487h77zM323 802l-116 114h83l86 -114h-53z" />
    <glyph glyph-name="ygrave" unicode="&#x1ef3;" horiz-adv-x="630" 
d="M190 -105c24 0 44.666 6.00098 61.999 18.001s33.333 34.667 48 68l4 13l-262 596h73l190 -461l30 -75h3l24 77l158 459h67l-225 -612c-20 -50.667 -43 -85.5 -69 -104.5s-57 -28.5 -93 -28.5c-32 0 -60.667 6.33301 -86 19l8 49
c11.333 -6.66699 22.833 -11.334 34.5 -14.001s22.834 -4 33.501 -4zM308.999 665.001l-103 142h79l73 -142h-49z" />
    <glyph glyph-name="endash" unicode="&#x2013;" horiz-adv-x="541" 
d="M461 364v-48h-381v48h381z" />
    <glyph glyph-name="emdash" unicode="&#x2014;" horiz-adv-x="714" 
d="M634 364v-48h-554v48h554z" />
    <glyph glyph-name="bullet" unicode="&#x2022;" horiz-adv-x="402" 
d="M77 322c0 82.667 40.667 124 122 124c80.667 0 121 -41.333 121 -124c0 -83.333 -40.333 -125 -121 -125c-81.333 0 -122 41.667 -122 125z" />
    <glyph glyph-name="ellipsis" unicode="&#x2026;" horiz-adv-x="607" 
d="M533 37c0 -31.333 -15.333 -47 -46 -47c-16 0 -28 3.5 -36 10.5s-12 19.167 -12 36.5c0 30.667 16 46 48 46c30.667 0 46 -15.333 46 -46zM356 37c0 -31.333 -15.333 -47 -46 -47c-16 0 -28 3.5 -36 10.5s-12 19.167 -12 36.5c0 30.667 16 46 48 46
c30.667 0 46 -15.333 46 -46zM168 37c0 -31.333 -15.333 -47 -46 -47c-16 0 -28 3.5 -36 10.5s-12 19.167 -12 36.5c0 30.667 16 46 48 46c30.667 0 46 -15.333 46 -46z" />
    <glyph glyph-name="guilsinglleft" unicode="&#x2039;" horiz-adv-x="411" 
d="M121 329l211 -130v-54l-278 181v7l278 180v-53z" />
    <glyph glyph-name="guilsinglright" unicode="&#x203a;" horiz-adv-x="411" 
d="M79 199l211 130l-211 131v53l278 -180v-7l-278 -181v54z" />
    <glyph glyph-name="zerosuperior" unicode="&#x2070;" horiz-adv-x="359" 
d="M325 700c0 -36.667 -2.83496 -67.834 -8.50195 -93.501s-14.334 -46.667 -26.001 -63s-26.667 -28.166 -45 -35.499s-40.166 -11 -65.499 -11s-47.166 3.66699 -65.499 11s-33.333 19.166 -45 35.499s-20.334 37.333 -26.001 63s-8.5 56.834 -8.5 93.501
c0 37.333 2.83301 68.833 8.5 94.5s14.334 46.5 26.001 62.5s26.667 27.5 45 34.5s40.5 10.5 66.5 10.5c25.333 0 47 -3.5 65 -10.5s32.833 -18.5 44.5 -34.5s20.334 -36.833 26.001 -62.5s8.5 -57.167 8.5 -94.5zM271.998 700c0 32 -1.83301 58.167 -5.5 78.5
s-9.16699 36.333 -16.5 48s-16.666 19.834 -27.999 24.501s-25 7 -41 7c-16.667 0 -30.834 -2.33301 -42.501 -7s-21.334 -12.834 -29.001 -24.501s-13.334 -27.667 -17.001 -48s-5.5 -46.5 -5.5 -78.5s1.83301 -58.167 5.5 -78.5s9.33398 -36.5 17.001 -48.5
s17.334 -20.333 29.001 -25s25.834 -7 42.501 -7c16 0 29.667 2.33301 41 7s20.666 13 27.999 25s12.833 28.167 16.5 48.5s5.5 46.5 5.5 78.5z" />
    <glyph glyph-name="foursuperior" unicode="&#x2074;" horiz-adv-x="359" 
d="M289 590v-88h-49v88h-201l-4 30l190 276h64v-263h51l-2 -43h-49zM242 769l3 81l-2 1l-102 -152l-46 -63l1 -3h145z" />
    <glyph glyph-name="fivesuperior" unicode="&#x2075;" horiz-adv-x="359" 
d="M319 637c0 -46 -11.167 -80.668 -33.5 -104.001s-57.833 -35 -106.5 -35c-47.333 0 -87 10 -119 30l10 43c16.667 -9.33301 33 -16.666 49 -21.999s34.667 -8 56 -8c32 0 55.5 7.5 70.5 22.5s22.5 38.5 22.5 70.5c0 26 -7.16699 45 -21.5 57s-36.5 18 -66.5 18
c-18.667 0 -36.334 -2 -53.001 -6s-31 -8.66699 -43 -14l-22 18l17 189h221l1 -45h-181l-10 -113c12.667 4 25.834 7.16699 39.501 9.5s27.167 3.5 40.5 3.5c86 0 129 -38 129 -114z" />
    <glyph glyph-name="parenleftinferior" unicode="&#x208d;" horiz-adv-x="204" 
d="M187 282c-23.333 -34 -41.332 -70.832 -53.999 -110.499s-19 -83.167 -19 -130.5c0 -48 6.5 -91.667 19.5 -131s30.833 -76 53.5 -110l-38 -3c-26 30 -46.5 65.833 -61.5 107.5s-22.5 87.167 -22.5 136.5c0 50.667 7.16699 95.667 21.5 135s35.166 75.666 62.499 108.999
z" />
    <glyph glyph-name="parenrightinferior" unicode="&#x208e;" horiz-adv-x="204" 
d="M55 285c28 -33.333 49 -69.667 63 -109s21 -84.333 21 -135c0 -49.333 -7.5 -94.833 -22.5 -136.5s-35.5 -77.5 -61.5 -107.5l-38 3c22 34 39.667 70.667 53 110s20 83 20 131c0 47.333 -6.5 90.833 -19.5 130.5s-30.833 76.5 -53.5 110.5z" />
    <glyph glyph-name="franc" unicode="&#x20a3;" horiz-adv-x="616" 
d="M118 169v581h442l1 -64h-377v-268h296v-60h-296v-189h98v-49h-98v-120h-66v120h-95v49h95z" />
    <glyph glyph-name="peseta" unicode="&#x20a7;" horiz-adv-x="781" 
d="M370 538c0 -40 -3 -73.834 -9 -101.501s-15.667 -50.167 -29 -67.5s-30.333 -29.833 -51 -37.5s-45.667 -11.5 -75 -11.5h-76v-320h-50v750h126c28 0 52.333 -3.33301 73 -10s37.667 -18.167 51 -34.5s23.333 -38.166 30 -65.499s10 -61.333 10 -102zM317 537.999
c0 30.667 -2 56.168 -6 76.501s-10.333 36.5 -19 48.5s-20.167 20.5 -34.5 25.5s-31.5 7.5 -51.5 7.5h-76v-324h76c19.333 0 36 2.33301 50 7s25.5 13.167 34.5 25.5s15.667 29.166 20 50.499s6.5 49 6.5 83zM474 417l-0.000976562 -327c0 -20 3.5 -33.833 10.5 -41.5
s15.5 -11.5 25.5 -11.5c8 0 15 2 21 6l2 -44c-3.33301 -2.66699 -8.16602 -4.66699 -14.499 -6s-12.833 -2 -19.5 -2c-23.333 0 -41 7.83301 -53 23.5s-18 40.5 -18 74.5v328h-33v43h34l8 109l37 5v-114h63v-43h-63zM735.999 123
c0 -46.667 -7.83594 -80.665 -23.5029 -101.998s-39.5 -32 -71.5 -32c-13.333 0 -26 2.16699 -38 6.5s-22 10.166 -30 17.499l2 48c18.667 -16.667 39.667 -25 63 -25c37.333 0 56 28.667 56 86c0 20 -3 36 -9 48s-13.667 22.333 -23 31s-19.166 16.5 -29.499 23.5
s-20.166 15.5 -29.499 25.5s-17 22.5 -23 37.5s-9 34.5 -9 58.5c0 37.333 8 66.833 24 88.5s39 32.5 69 32.5c12 0 23.167 -1.83301 33.5 -5.5s19.833 -8.5 28.5 -14.5l-4 -46c-17.333 11.333 -35.666 17 -54.999 17c-34.667 0 -52 -23.667 -52 -71c0 -18 3 -32.333 9 -43
s13.5 -19.834 22.5 -27.501s18.667 -15 29 -22s20 -15.833 29 -26.5s16.5 -24.167 22.5 -40.5s9 -37.833 9 -64.5z" />
    <glyph glyph-name="trademark" unicode="&#x2122;" horiz-adv-x="647" 
d="M557 505v146l2 81l-3 1l-31 -76l-65 -152h-29l-66 153l-31 75l-2 -1l1 -81v-146h-34v270h51l64 -150l31 -74h3l30 74l65 150h47v-270h-33zM166 739v-234h-38v234h-89v36h215v-36h-88z" />
    <glyph glyph-name="Omega" unicode="&#x2126;" horiz-adv-x="740" 
d="M370 762c95.333 0 167.833 -26.833 217.5 -80.5s74.5 -138.834 74.5 -255.501c0 -34.667 -3.83301 -69 -11.5 -103s-19.334 -66.667 -35.001 -98s-35.5 -61.166 -59.5 -89.499s-52.333 -53.833 -85 -76.5v-3h199v-56h-255v77c54.667 43.333 98.167 94.333 130.5 153
s48.5 123.334 48.5 194.001c0 95.333 -17.833 165.166 -53.5 209.499s-92.5 66.5 -170.5 66.5s-134.833 -22.167 -170.5 -66.5s-53.5 -114.166 -53.5 -209.499c0 -70.667 16.167 -135.334 48.5 -194.001s75.833 -109.667 130.5 -153v-77h-255v56h199l1 3
c-65.333 46 -113.666 101.167 -144.999 165.5s-47 131.5 -47 201.5c0 116 24.833 201 74.5 255s122.167 81 217.5 81z" />
    <glyph glyph-name="onethird" unicode="&#x2153;" horiz-adv-x="869" 
d="M789 118c0 -38 -11.665 -67.999 -34.998 -89.999s-60.666 -33 -111.999 -33c-28 0 -51.833 3.16699 -71.5 9.5s-36.834 13.833 -51.501 22.5l12 42c15.333 -10 32.166 -17.667 50.499 -23s38.5 -8 60.5 -8c34 0 58.5 7.83301 73.5 23.5s22.5 35.167 22.5 58.5
c0 25.333 -9.33301 43.5 -28 54.5s-52.334 16.5 -101.001 16.5v38c44.667 0 75.834 5.66699 93.501 17s26.5 28 26.5 50c0 20.667 -7.33301 35.667 -22 45s-35.334 14 -62.001 14c-23.333 0 -43.5 -3.16699 -60.5 -9.5s-33.167 -15.5 -48.5 -27.5l-14 39
c14 11.333 31.833 21.166 53.5 29.499s45.167 12.5 70.5 12.5c42 0 74.667 -8.33301 98 -25s35 -41.334 35 -74.001c0 -25.333 -6.5 -45 -19.5 -59s-29.833 -24 -50.5 -30v-2c25.333 -5.33301 45 -15.166 59 -29.499s21 -34.833 21 -61.5zM703.002 750.001l-508 -750h-49
l508 750h49zM272.002 355.001h-53v248l3 79l-3 1l-85 -57l-5 44l111 82h32v-397z" />
    <glyph glyph-name="twothirds" unicode="&#x2154;" horiz-adv-x="869" 
d="M324 645c0 -21.333 -4.66895 -41.668 -14.002 -61.001s-22.5 -38.833 -39.5 -58.5s-37.167 -39.5 -60.5 -59.5l-77 -63v-3h195l-1 -45h-262v35l77 70.5c24.667 22.333 46.5 43.833 65.5 64.5s34.167 40.667 45.5 60s17 38 17 56c0 19.333 -6.5 35.5 -19.5 48.5
s-35.167 19.5 -66.5 19.5c-20 0 -38.667 -3.66699 -56 -11s-33.666 -16.666 -48.999 -27.999l-14 42c16 12.667 34.833 23 56.5 31s45.834 12 72.501 12c43.333 0 75.833 -9.83301 97.5 -29.5s32.5 -46.5 32.5 -80.5zM711.998 749.998l-508 -750h-49l508 750h49z
M790.998 117.998c0 -38 -11.665 -67.999 -34.998 -89.999s-60.666 -33 -111.999 -33c-28 0 -51.833 3.16699 -71.5 9.5s-36.834 13.833 -51.501 22.5l12 42c15.333 -10 32.166 -17.667 50.499 -23s38.5 -8 60.5 -8c34 0 58.5 7.83301 73.5 23.5s22.5 35.167 22.5 58.5
c0 25.333 -9.33301 43.5 -28 54.5s-52.334 16.5 -101.001 16.5v38c44.667 0 75.834 5.66699 93.501 17s26.5 28 26.5 50c0 20.667 -7.33301 35.667 -22 45s-35.334 14 -62.001 14c-23.333 0 -43.5 -3.16699 -60.5 -9.5s-33.167 -15.5 -48.5 -27.5l-14 39
c14 11.333 31.833 21.166 53.5 29.499s45.167 12.5 70.5 12.5c42 0 74.667 -8.33301 98 -25s35 -41.334 35 -74.001c0 -25.333 -6.5 -45 -19.5 -59s-29.833 -24 -50.5 -30v-2c25.333 -5.33301 45 -15.166 59 -29.499s21 -34.833 21 -61.5z" />
    <glyph glyph-name="oneeighth" unicode="&#x215b;" horiz-adv-x="869" 
d="M277 355h-53v248l3 79l-3 1l-85 -57l-5 44l111 82h32v-397zM702 750l-508 -750h-49l508 750h49zM500 108c0 23.333 6.83105 43.168 20.498 59.501s32.167 29.5 55.5 39.5v3c-17.333 7.33301 -31.666 18 -42.999 32s-17 33 -17 57c0 31.333 9.83301 55.833 29.5 73.5
s52.5 26.5 98.5 26.5c44 0 75.833 -8.5 95.5 -25.5s29.5 -41.833 29.5 -74.5c0 -20 -5.16699 -37.667 -15.5 -53s-25.166 -28 -44.499 -38v-2c21.333 -7.33301 39.333 -18.333 54 -33s22 -36.334 22 -65.001c0 -75.333 -47 -113 -141 -113c-50 0 -86.5 9.33301 -109.5 28
s-34.5 47 -34.5 85zM732.998 105.002c0 14 -3.33105 25.333 -9.99805 34s-15.334 16 -26.001 22s-22.834 11.167 -36.501 15.5l-41.5 13.5c-19.333 -9.33301 -35.333 -20.333 -48 -33s-19 -29 -19 -49c0 -24 6.83301 -41.833 20.5 -53.5s37.5 -17.5 71.5 -17.5
c27.333 0 49 5.33301 65 16s24 28 24 52zM566 297.002c0 -12 2.83301 -21.8311 8.5 -29.498s13 -14.334 22 -20.001s19.5 -10.334 31.5 -14.001l37 -11.5c37.333 18.667 56 42.667 56 72c0 21.333 -6 37.5 -18 48.5s-31.667 16.5 -59 16.5c-28 0 -48 -5.33301 -60 -16
s-18 -26 -18 -46z" />
    <glyph glyph-name="threeeighths" unicode="&#x215c;" horiz-adv-x="869" 
d="M340 473c0 -38 -11.666 -67.833 -34.999 -89.5s-60.333 -32.5 -111 -32.5c-28 0 -51.833 3 -71.5 9s-37.167 13.667 -52.5 23l13 41c15.333 -9.33301 32.166 -16.666 50.499 -21.999s38.5 -8 60.5 -8c33.333 0 57.666 7.66699 72.999 23s23 35 23 59
c0 25.333 -9.5 43.333 -28.5 54s-52.833 16 -101.5 16v38c45.333 0 76.833 5.83301 94.5 17.5s26.5 28.5 26.5 50.5c0 20.667 -7.33301 35.667 -22 45s-35.334 14 -62.001 14c-23.333 0 -43.666 -3.16699 -60.999 -9.5s-33.666 -15.5 -48.999 -27.5l-13 38
c14 12 31.833 22.167 53.5 30.5s45.167 12.5 70.5 12.5c41.333 0 73.666 -8.33301 96.999 -25s35 -41.667 35 -75c0 -25.333 -6.66699 -44.833 -20 -58.5s-30.666 -23.5 -51.999 -29.5v-2c26.667 -5.33301 47 -15.333 61 -30s21 -35.334 21 -62.001zM710.001 750l-508 -750
h-49l508 750h49zM507.001 108c0 23.333 6.83105 43.168 20.498 59.501s32.167 29.5 55.5 39.5v3c-17.333 7.33301 -31.666 18 -42.999 32s-17 33 -17 57c0 31.333 9.83301 55.833 29.5 73.5s52.5 26.5 98.5 26.5c44 0 75.833 -8.5 95.5 -25.5s29.5 -41.833 29.5 -74.5
c0 -20 -5.16699 -37.667 -15.5 -53s-25.166 -28 -44.499 -38v-2c21.333 -7.33301 39.333 -18.333 54 -33s22 -36.334 22 -65.001c0 -75.333 -47 -113 -141 -113c-50 0 -86.5 9.33301 -109.5 28s-34.5 47 -34.5 85zM739.999 105.002c0 14 -3.33105 25.333 -9.99805 34
s-15.334 16 -26.001 22s-22.834 11.167 -36.501 15.5l-41.5 13.5c-19.333 -9.33301 -35.333 -20.333 -48 -33s-19 -29 -19 -49c0 -24 6.83301 -41.833 20.5 -53.5s37.5 -17.5 71.5 -17.5c27.333 0 49 5.33301 65 16s24 28 24 52zM573.001 297.002
c0 -12 2.83301 -21.8311 8.5 -29.498s13 -14.334 22 -20.001s19.5 -10.334 31.5 -14.001l37 -11.5c37.333 18.667 56 42.667 56 72c0 21.333 -6 37.5 -18 48.5s-31.667 16.5 -59 16.5c-28 0 -48 -5.33301 -60 -16s-18 -26 -18 -46z" />
    <glyph glyph-name="fiveeighths" unicode="&#x215d;" horiz-adv-x="869" 
d="M381 490c0 -45.333 -11.167 -79.834 -33.5 -103.501s-57.833 -35.5 -106.5 -35.5c-47.333 0 -87 10 -119 30l10 43c16.667 -9.33301 33 -16.666 49 -21.999s34.667 -8 56 -8c32 0 55.5 7.5 70.5 22.5s22.5 38.5 22.5 70.5c0 26 -7.16699 45 -21.5 57s-36.5 18 -66.5 18
c-18.667 0 -36.334 -1.83301 -53.001 -5.5s-31 -8.5 -43 -14.5l-22 18l17 189h221l1 -44h-181l-10 -113c12.667 4 25.834 7.16699 39.501 9.5s27.167 3.5 40.5 3.5c86 0 129 -38.333 129 -115zM707 749.999l-508 -750h-49l508 750h49zM505 107.999
c0 23.333 6.83105 43.168 20.498 59.501s32.167 29.5 55.5 39.5v3c-17.333 7.33301 -31.666 18 -42.999 32s-17 33 -17 57c0 31.333 9.83301 55.833 29.5 73.5s52.5 26.5 98.5 26.5c44 0 75.833 -8.5 95.5 -25.5s29.5 -41.833 29.5 -74.5c0 -20 -5.16699 -37.667 -15.5 -53
s-25.166 -28 -44.499 -38v-2c21.333 -7.33301 39.333 -18.333 54 -33s22 -36.334 22 -65.001c0 -75.333 -47 -113 -141 -113c-50 0 -86.5 9.33301 -109.5 28s-34.5 47 -34.5 85zM737.998 105.001c0 14 -3.33105 25.333 -9.99805 34s-15.334 16 -26.001 22
s-22.834 11.167 -36.501 15.5l-41.5 13.5c-19.333 -9.33301 -35.333 -20.333 -48 -33s-19 -29 -19 -49c0 -24 6.83301 -41.833 20.5 -53.5s37.5 -17.5 71.5 -17.5c27.333 0 49 5.33301 65 16s24 28 24 52zM571 297.001c0 -12 2.83301 -21.8311 8.5 -29.498
s13 -14.334 22 -20.001s19.5 -10.334 31.5 -14.001l37 -11.5c37.333 18.667 56 42.667 56 72c0 21.333 -6 37.5 -18 48.5s-31.667 16.5 -59 16.5c-28 0 -48 -5.33301 -60 -16s-18 -26 -18 -46z" />
    <glyph glyph-name="seveneighths" unicode="&#x215e;" horiz-adv-x="869" 
d="M414 706l-170 -351h-62l175 346h-224l3 48h278v-43zM701 750l-508 -750h-49l508 750h49zM500 108c0 23.333 6.83105 43.168 20.498 59.501s32.167 29.5 55.5 39.5v3c-17.333 7.33301 -31.666 18 -42.999 32s-17 33 -17 57c0 31.333 9.83301 55.833 29.5 73.5
s52.5 26.5 98.5 26.5c44 0 75.833 -8.5 95.5 -25.5s29.5 -41.833 29.5 -74.5c0 -20 -5.16699 -37.667 -15.5 -53s-25.166 -28 -44.499 -38v-2c21.333 -7.33301 39.333 -18.333 54 -33s22 -36.334 22 -65.001c0 -75.333 -47 -113 -141 -113c-50 0 -86.5 9.33301 -109.5 28
s-34.5 47 -34.5 85zM732.998 105.002c0 14 -3.33105 25.333 -9.99805 34s-15.334 16 -26.001 22s-22.834 11.167 -36.501 15.5l-41.5 13.5c-19.333 -9.33301 -35.333 -20.333 -48 -33s-19 -29 -19 -49c0 -24 6.83301 -41.833 20.5 -53.5s37.5 -17.5 71.5 -17.5
c27.333 0 49 5.33301 65 16s24 28 24 52zM566 297.002c0 -12 2.83301 -21.8311 8.5 -29.498s13 -14.334 22 -20.001s19.5 -10.334 31.5 -14.001l37 -11.5c37.333 18.667 56 42.667 56 72c0 21.333 -6 37.5 -18 48.5s-31.667 16.5 -59 16.5c-28 0 -48 -5.33301 -60 -16
s-18 -26 -18 -46z" />
    <glyph glyph-name="partialdiff" unicode="&#x2202;" horiz-adv-x="627" 
d="M332 568c39.333 0 74.334 -6.83301 105.001 -20.5s55 -32.167 73 -55.5l2 2c-9.33301 72 -31.333 124.833 -66 158.5s-83 50.5 -145 50.5c-43.333 0 -79.833 -6.16699 -109.5 -18.5s-56.5 -29.833 -80.5 -52.5l-19 45c26.667 24 57.167 43.5 91.5 58.5
s76.5 22.5 126.5 22.5c37.333 0 71.833 -6.5 103.5 -19.5s59.167 -33.167 82.5 -60.5s41.5 -62.333 54.5 -105s19.5 -94 19.5 -154s-6.83301 -116.333 -20.5 -169s-33.334 -98.5 -59.001 -137.5s-57.167 -69.667 -94.5 -92s-79.666 -33.5 -126.999 -33.5
c-73.333 0 -127 20.833 -161 62.5s-51 100.167 -51 175.5c0 52.667 6.16699 100.167 18.5 142.5s30.166 78.333 53.499 108s52 52.5 86 68.5s73 24 117 24zM506.001 388c0 15.333 -3.5 30.668 -10.5 46.001s-17.5 29.166 -31.5 41.499s-31.167 22.333 -51.5 30
s-43.833 11.5 -70.5 11.5c-70 0 -124.667 -25.167 -164 -75.5s-59 -123.5 -59 -219.5c0 -122 52.667 -183 158 -183c37.333 0 70.333 9.83301 99 29.5s52.667 45.667 72 78s33.833 69.5 43.5 111.5s14.5 85.333 14.5 130z" />
    <glyph glyph-name="Delta" unicode="&#x2206;" horiz-adv-x="761" 
d="M709 0h-658l306 754h46zM350 603l-216 -545h490l-215 545l-27 76h-3z" />
    <glyph glyph-name="product" unicode="&#x220f;" horiz-adv-x="741" 
d="M165 -147v846l-89 5l-1 46h594l-1 -45l-88 -6v-846h-58v842h-300v-842h-57z" />
    <glyph glyph-name="lessequal" unicode="&#x2264;" 
d="M228 411l-75 -29v-3l76 -28l307 -120v-62l-429 182v60l429 190v-63zM112 60v52h424v-52h-424z" />
    <glyph glyph-name="greaterequal" unicode="&#x2265;" 
d="M108 231l306 120l76 28v3l-76 29l-306 127v63l428 -190v-60l-428 -182v62zM107 60v52h424v-52h-424z" />
    <glyph glyph-name="fi" unicode="&#xfb01;" horiz-adv-x="690" 
d="M195 0l-60 -0.000976562v542h-96v48h96v29c0 26 3.5 49.833 10.5 71.5s18.167 40.334 33.5 56.001s34.833 27.667 58.5 36s52.167 12.5 85.5 12.5c13.333 0 27 -0.833008 41 -2.5s25.333 -3.83398 34 -6.50098l-2 -44c-8 2 -17.5 3.83301 -28.5 5.5
s-22.167 2.5 -33.5 2.5c-49.333 0 -84.833 -11.667 -106.5 -35s-32.5 -55.666 -32.5 -96.999v-28h371v-590h-62v542h-309v-542zM582 754.999c0 -28 -15.667 -42 -47 -42c-15.333 0 -27 3 -35 9s-12 17 -12 33c0 28 15.667 42 47 42s47 -14 47 -42z" />
    <glyph glyph-name="fl" unicode="&#xfb02;" horiz-adv-x="660" 
d="M482 0l0.00195312 747.001c-18.667 2 -36.667 3.83301 -54 5.5s-36.333 2.5 -57 2.5c-32.667 0 -60.167 -3 -82.5 -9s-40.5 -14.833 -54.5 -26.5s-24 -25.834 -30 -42.501s-9 -35.667 -9 -57v-30h140v-48h-140v-542h-61v542h-95v48h95v31c0 26 4.16699 50 12.5 72
s21.666 41 39.999 57s42.666 28.333 72.999 37s67.5 13 111.5 13c18 0 34.333 -0.5 49 -1.5s28.667 -2.16699 42 -3.5l39.5 -4c13 -1.33301 26.5 -2.33301 40.5 -3v-788h-60z" />
    <glyph glyph-name=".null" horiz-adv-x="0" 
 />
    <glyph glyph-name="nonmarkingreturn" horiz-adv-x="500" 
 />
    <glyph glyph-name="exclamdown" horiz-adv-x="303" 
d="M177 474l8 -609h-66l9 609h49zM105 629c0 28 15 41.999 45 41.999c15.333 0 27 -3.16699 35 -9.5s12 -17.166 12 -32.499c0 -29.333 -15.667 -44 -47 -44c-30 0 -45 14.667 -45 44z" />
    <glyph glyph-name="cent" horiz-adv-x="505" 
d="M445 511c-18.667 9.33301 -39.168 16.834 -61.501 22.501s-45.166 8.5 -68.499 8.5c-34.667 0 -64.167 -4.5 -88.5 -13.5s-44.166 -23.333 -59.499 -43s-26.5 -44.667 -33.5 -75s-10.5 -66.5 -10.5 -108.5c0 -48 4 -88.333 12 -121s20 -59.334 36 -80.001
s35.833 -35.5 59.5 -44.5s51.167 -13.5 82.5 -13.5c25.333 0 49.666 3.5 72.999 10.5s44.333 17.167 63 30.5l6 -53c-16 -12 -35.667 -21.833 -59 -29.5s-48.666 -12.167 -75.999 -13.5l-5 -141h-51l6 141c-70.667 6 -123.334 33.833 -158.001 83.5s-52 126.5 -52 230.5
c0 97.333 18 170.5 54 219.5s93.333 75.167 172 78.5l8 132h50l-8 -134c21.333 -2 41.833 -5.83301 61.5 -11.5s37.167 -12.167 52.5 -19.5z" />
    <glyph glyph-name="sterling" horiz-adv-x="646" 
d="M86 404l53.002 0.00195312c-6.66699 24 -12.667 47.333 -18 70s-8 47.667 -8 75c0 28.667 4.33301 55.667 13 81s23 47.5 43 66.5s46.333 34.167 79 45.5s73 17 121 17c37.333 0 72.166 -3.83301 104.499 -11.5s60.833 -17.5 85.5 -29.5l-10 -59
c-21.333 11.333 -47.5 20.833 -78.5 28.5s-62.833 11.5 -95.5 11.5c-35.333 0 -65.5 -4 -90.5 -12s-45.333 -18.833 -61 -32.5s-27.167 -29.834 -34.5 -48.501s-11 -39 -11 -61c0 -24 2.5 -47.333 7.5 -70s10.833 -46.334 17.5 -71.001h275v-54h-263
c3.33301 -17.333 6.33301 -35.666 9 -54.999s4 -39.666 4 -60.999c0 -42 -7 -77.833 -21 -107.5s-33 -53.167 -57 -70.5l1 -2c34.667 5.33301 69.334 9.16602 104.001 11.499s75.334 3.5 122.001 3.5c38 0 75.833 -1.33301 113.5 -4s74.5 -5.66699 110.5 -9
c0 -1.33301 -0.166992 -5 -0.5 -11s-0.833008 -12.667 -1.5 -20s-1.16699 -14.166 -1.5 -20.499s-0.833008 -9.83301 -1.5 -10.5c-44.667 4.66699 -86.334 8.33398 -125.001 11.001s-79.334 4 -122.001 4c-24 0 -47.167 -0.333008 -69.5 -1s-44.833 -1.5 -67.5 -2.5
s-45.834 -2.33301 -69.501 -4s-48.834 -3.83398 -75.501 -6.50098l-3 58c34 13.333 59.333 36.333 76 69s25 69 25 109c0 23.333 -1.16699 44.666 -3.5 63.999s-5.16602 37.666 -8.49902 54.999h-65z" />
    <glyph glyph-name="ordfeminine" horiz-adv-x="406" 
d="M296 448l-3.00293 1c-13.333 -18.667 -29.666 -33 -48.999 -43s-41.333 -15 -66 -15c-36.667 0 -66.167 10.167 -88.5 30.5s-33.5 53.833 -33.5 100.5c0 40 12 71 36 93s59.333 33 106 33c16.667 0 32.834 -1.5 48.501 -4.5s30.167 -7.83301 43.5 -14.5v48
c0 36 -7.66699 60.5 -23 73.5s-39.666 19.5 -72.999 19.5c-38 0 -74 -8 -108 -24l-6 47c38.667 17.333 80 26 124 26c50 0 85.5 -11.667 106.5 -35s31.5 -62 31.5 -116v-272h-41zM289.997 589c-5.33301 3.33301 -15.167 6.83203 -29.5 10.499s-31.833 5.5 -52.5 5.5
c-35.333 0 -61 -7 -77 -21s-24 -34.667 -24 -62c0 -31.333 8 -53.166 24 -65.499s36.333 -18.5 61 -18.5c13.333 0 25.833 2.16699 37.5 6.5s22 10 31 17s16.167 15 21.5 24s8 17.833 8 26.5v77z" />
    <glyph glyph-name="twosuperior" horiz-adv-x="341" 
d="M304 792c0 -21.333 -4.66895 -41.668 -14.002 -61.001s-22.5 -38.833 -39.5 -58.5s-37.167 -39.5 -60.5 -59.5l-77 -63v-3h195l-1 -45h-262v35l77 70.5c24.667 22.333 46.5 43.833 65.5 64.5s34.167 40.667 45.5 60s17 38 17 56c0 19.333 -6.5 35.5 -19.5 48.5
s-35.167 19.5 -66.5 19.5c-20 0 -38.667 -3.66699 -56 -11s-33.666 -16.666 -48.999 -27.999l-14 42c16 12.667 34.833 23 56.5 31s45.834 12 72.501 12c43.333 0 75.833 -9.83301 97.5 -29.5s32.5 -46.5 32.5 -80.5z" />
    <glyph glyph-name="threesuperior" horiz-adv-x="341" 
d="M305 620c0 -38 -11.666 -67.833 -34.999 -89.5s-60.333 -32.5 -111 -32.5c-28 0 -51.833 3 -71.5 9s-37.167 13.667 -52.5 23l13 41c15.333 -9.33301 32.166 -16.666 50.499 -21.999s38.5 -8 60.5 -8c33.333 0 57.666 7.66699 72.999 23s23 35 23 59
c0 25.333 -9.5 43.333 -28.5 54s-52.833 16 -101.5 16v38c45.333 0 76.833 5.83301 94.5 17.5s26.5 28.5 26.5 50.5c0 20 -7.33301 34.833 -22 44.5s-35.334 14.5 -62.001 14.5c-23.333 0 -43.666 -3.16699 -60.999 -9.5s-33.666 -15.833 -48.999 -28.5l-13 39
c14 12 31.833 22.167 53.5 30.5s45.167 12.5 70.5 12.5c41.333 0 73.666 -8.5 96.999 -25.5s35 -41.833 35 -74.5c0 -25.333 -6.66699 -44.833 -20 -58.5s-30.666 -23.5 -51.999 -29.5v-2c26.667 -5.33301 47 -15.333 61 -30s21 -35.334 21 -62.001z" />
    <glyph glyph-name="onesuperior" horiz-adv-x="264" 
d="M192 502h-53v248l3 79l-3 1l-85 -57l-5 44l111 82h32v-397z" />
    <glyph glyph-name="ordmasculine" horiz-adv-x="439" 
d="M386 604c0 -78 -13.168 -133.167 -39.501 -165.5s-68.166 -48.5 -125.499 -48.5c-58 0 -100.333 16.167 -127 48.5s-40 87.5 -40 165.5s13.5 133.333 40.5 166s69.167 49 126.5 49c58 0 100 -16.333 126 -49s39 -88 39 -166zM107.999 604
c0 -31.333 2.16699 -57.5 6.5 -78.5s11 -38 20 -51s20.667 -22.333 35 -28s31.5 -8.5 51.5 -8.5s37 2.83301 51 8.5s25.5 15 34.5 28s15.667 30 20 51s6.5 47.167 6.5 78.5s-2.16699 57.5 -6.5 78.5s-11 38 -20 51s-20.5 22.167 -34.5 27.5s-31 8 -51 8
s-37.167 -2.66699 -51.5 -8s-26 -14.5 -35 -27.5s-15.667 -30 -20 -51s-6.5 -47.167 -6.5 -78.5z" />
    <glyph glyph-name="onehalf" horiz-adv-x="869" 
d="M781 290c0 -21.333 -4.66895 -41.834 -14.002 -61.501s-22.5 -39.167 -39.5 -58.5s-37.167 -39 -60.5 -59l-77 -63v-3h195l-1 -45h-262v35l77 69.5c24.667 22.333 46.5 43.833 65.5 64.5s34.167 40.667 45.5 60s17 38.333 17 57c0 19.333 -6.5 35.5 -19.5 48.5
s-35.167 19.5 -66.5 19.5c-20 0 -38.667 -3.66699 -56 -11s-33.666 -16.666 -48.999 -27.999l-14 42c16 12 34.833 22 56.5 30s45.834 12 72.501 12c43.333 0 75.833 -9.66699 97.5 -29s32.5 -46 32.5 -80zM702.998 749.999l-508 -750h-49l508 750h49zM275.998 354.999h-53
v248l3 79l-3 1l-85 -57l-5 44l111 82h32v-397z" />
    <glyph glyph-name="AE" horiz-adv-x="1050" 
d="M581 688l32 -267h316v-56h-309l36 -303h341l-3 -62h-396l-23 198h-331l-108 -198h-80l425 750h504l2 -62h-406zM479 629l-203 -372h292l-42 363l-7 80l-3 1z" />
    <glyph glyph-name="germandbls" horiz-adv-x="622" 
d="M101 511c0 82 19.1641 144.498 57.4971 187.498s92.833 64.5 163.5 64.5c23.333 0 44.833 -3.33301 64.5 -10s36.667 -15.667 51 -27s25.5 -24.666 33.5 -39.999s12 -32 12 -50c0 -27.333 -7.83301 -51.666 -23.5 -72.999s-33 -40.333 -52 -57l-52 -45
c-15.667 -13.333 -23.5 -25.666 -23.5 -36.999c0 -10 6 -19.333 18 -28s26.833 -17.667 44.5 -27l58 -31.5c21 -11.667 40.333 -25.167 58 -40.5s32.5 -33.333 44.5 -54s18 -45 18 -73c0 -56.667 -19.5 -100.5 -58.5 -131.5s-90.833 -46.5 -155.5 -46.5
c-26.667 0 -55.167 3.33301 -85.5 10s-56.166 17.667 -77.499 33l6 56c19.333 -14 41.833 -24.667 67.5 -32s52.5 -11 80.5 -11c24 0 45.833 2.66699 65.5 8s36.667 13 51 23s25.5 22.5 33.5 37.5s12 32.167 12 51.5c0 23.333 -6 43.666 -18 60.999s-27.167 32.5 -45.5 45.5
s-38 24.833 -59 35.5s-40.667 21.334 -59 32.001s-33.5 21.834 -45.5 33.501s-18 25.167 -18 40.5c0 12.667 4 24.667 12 36s17.833 22.333 29.5 33s24.334 21.5 38.001 32.5s26.334 22.5 38.001 34.5s21.5 24.667 29.5 38s12 28 12 44c0 21.333 -9.5 39.166 -28.5 53.499
s-44.5 21.5 -76.5 21.5c-52.667 0 -92.5 -16.333 -119.5 -49s-40.5 -80.334 -40.5 -143.001v-517h-60v511z" />
    <glyph glyph-name="agrave" horiz-adv-x="568" 
d="M432 83l-3.00098 1.00098c-16 -28 -40.333 -50.5 -73 -67.5s-69.667 -25.5 -111 -25.5c-26.667 0 -51.167 3.5 -73.5 10.5s-41.5 17.833 -57.5 32.5s-28.333 33.667 -37 57s-13 51.666 -13 84.999c0 56.667 17.333 100.167 52 130.5s88.334 45.5 161.001 45.5
c26.667 0 52.834 -2.5 78.501 -7.5s48.5 -11.167 68.5 -18.5v73c0 56 -12.167 94.667 -36.5 116s-62.5 32 -114.5 32c-30.667 0 -59.834 -2.83301 -87.501 -8.5s-54.167 -15.167 -79.5 -28.5l-7 53c56 26 117.333 39 184 39c36 0 66.833 -3.83301 92.5 -11.5
s46.5 -20 62.5 -37s27.833 -39 35.5 -66s11.5 -59.5 11.5 -97.5v-390h-46zM423.999 278.001c-7.33301 5.33301 -23.168 11.332 -47.501 17.999s-54.5 10 -90.5 10c-57.333 0 -99 -11.167 -125 -33.5s-39 -54.166 -39 -95.499c0 -25.333 3.5 -46.5 10.5 -63.5
s16.833 -30.667 29.5 -41s27.334 -17.833 44.001 -22.5s35 -7 55 -7c21.333 0 41.833 3.5 61.5 10.5s37 16 52 27s27 23.5 36 37.5s13.5 28 13.5 42v118zM271.997 665l-103 142h79l73 -142h-49z" />
    <glyph glyph-name="aacute" horiz-adv-x="568" 
d="M432 83l-3.00098 1.00098c-16 -28 -40.333 -50.5 -73 -67.5s-69.667 -25.5 -111 -25.5c-26.667 0 -51.167 3.5 -73.5 10.5s-41.5 17.833 -57.5 32.5s-28.333 33.667 -37 57s-13 51.666 -13 84.999c0 56.667 17.333 100.167 52 130.5s88.334 45.5 161.001 45.5
c26.667 0 52.834 -2.5 78.501 -7.5s48.5 -11.167 68.5 -18.5v73c0 56 -12.167 94.667 -36.5 116s-62.5 32 -114.5 32c-30.667 0 -59.834 -2.83301 -87.501 -8.5s-54.167 -15.167 -79.5 -28.5l-7 53c56 26 117.333 39 184 39c36 0 66.833 -3.83301 92.5 -11.5
s46.5 -20 62.5 -37s27.833 -39 35.5 -66s11.5 -59.5 11.5 -97.5v-390h-46zM423.999 278.001c-7.33301 5.33301 -23.168 11.332 -47.501 17.999s-54.5 10 -90.5 10c-57.333 0 -99 -11.167 -125 -33.5s-39 -54.166 -39 -95.499c0 -25.333 3.5 -46.5 10.5 -63.5
s16.833 -30.667 29.5 -41s27.334 -17.833 44.001 -22.5s35 -7 55 -7c21.333 0 41.833 3.5 61.5 10.5s37 16 52 27s27 23.5 36 37.5s13.5 28 13.5 42v118zM388.997 807l-110 -142h-50l80 142h80z" />
    <glyph glyph-name="adieresis" horiz-adv-x="568" 
d="M432 83l-3.00098 1.00098c-16 -28 -40.333 -50.5 -73 -67.5s-69.667 -25.5 -111 -25.5c-26.667 0 -51.167 3.5 -73.5 10.5s-41.5 17.833 -57.5 32.5s-28.333 33.667 -37 57s-13 51.666 -13 84.999c0 56.667 17.333 100.167 52 130.5s88.334 45.5 161.001 45.5
c26.667 0 52.834 -2.5 78.501 -7.5s48.5 -11.167 68.5 -18.5v73c0 56 -12.167 94.667 -36.5 116s-62.5 32 -114.5 32c-30.667 0 -59.834 -2.83301 -87.501 -8.5s-54.167 -15.167 -79.5 -28.5l-7 53c56 26 117.333 39 184 39c36 0 66.833 -3.83301 92.5 -11.5
s46.5 -20 62.5 -37s27.833 -39 35.5 -66s11.5 -59.5 11.5 -97.5v-390h-46zM423.999 278.001c-7.33301 5.33301 -23.168 11.332 -47.501 17.999s-54.5 10 -90.5 10c-57.333 0 -99 -11.167 -125 -33.5s-39 -54.166 -39 -95.499c0 -25.333 3.5 -46.5 10.5 -63.5
s16.833 -30.667 29.5 -41s27.334 -17.833 44.001 -22.5s35 -7 55 -7c21.333 0 41.833 3.5 61.5 10.5s37 16 52 27s27 23.5 36 37.5s13.5 28 13.5 42v118zM246.997 756c0 -25.333 -11.667 -38 -35 -38c-11.333 0 -20 2.83301 -26 8.5s-9 15.5 -9 29.5c0 12 3 21.5 9 28.5
s14.667 10.5 26 10.5c23.333 0 35 -13 35 -39zM395.997 756c0 -25.333 -11.667 -38 -35 -38c-11.333 0 -20 2.83301 -26 8.5s-9 15.5 -9 29.5c0 12 3 21.5 9 28.5s14.667 10.5 26 10.5c23.333 0 35 -13 35 -39z" />
    <glyph glyph-name="ae" horiz-adv-x="933" 
d="M283 600c50 0 89.334 -8.16797 118.001 -24.501s48.667 -42.833 60 -79.5h2c19.333 34.667 45.166 60.667 77.499 78s70.5 26 114.5 26c32 0 61.667 -5.16699 89 -15.5s50.833 -26.5 70.5 -48.5s35 -50.167 46 -84.5s16.5 -75.5 16.5 -123.5v-15.5
c0 -5.66699 -0.333008 -10.5 -1 -14.5h-396c0.666992 -47.333 5.33398 -87.166 14.001 -119.499s21.5 -58.333 38.5 -78s38.167 -33.834 63.5 -42.501s55.333 -13 90 -13c31.333 0 60 3.83301 86 11.5s51.667 18.167 77 31.5l8 -54c-25.333 -14.667 -52.5 -26 -81.5 -34
s-61.167 -12 -96.5 -12c-60.667 0 -109.167 10.333 -145.5 31s-62.833 52.667 -79.5 96h-3c-14.667 -39.333 -39.5 -70.166 -74.5 -92.499s-77.167 -33.5 -126.5 -33.5c-56 0 -101 14.333 -135 43s-51 76 -51 142c0 56.667 17.333 100 52 130s88.334 45 161.001 45
c28 0 54.667 -2.66699 80 -8s47.666 -12 66.999 -20v76c0 56 -12.167 94.667 -36.5 116s-62.5 32 -114.5 32c-30.667 0 -59.834 -2.83301 -87.501 -8.5s-54.167 -15.167 -79.5 -28.5l-7 53c56 26 117.333 39 184 39zM424.001 275.999
c-7.33301 5.33301 -23.168 11.334 -47.501 18.001s-54.5 10 -90.5 10c-57.333 0 -99.166 -11.167 -125.499 -33.5s-39.5 -54.166 -39.5 -95.499c0 -25.333 3.66699 -46.5 11 -63.5s17.166 -30.667 29.499 -41s27 -17.833 44 -22.5s35.5 -7 55.5 -7
c24 0 45.833 3.66699 65.5 11s36.834 17.166 51.501 29.499s26 27.166 34 44.499s12 36 12 56v94zM821.999 341c-0.666992 37.333 -5.33203 69.001 -13.999 95.001s-20.5 47.167 -35.5 63.5s-32.833 28.166 -53.5 35.499s-43 11 -67 11c-57.333 0 -99.833 -17 -127.5 -51
s-42.834 -85.333 -45.501 -154h343z" />
    <glyph glyph-name="eacute" horiz-adv-x="573" 
d="M320 -12c-47.333 0 -87.5 6.33496 -120.5 19.002s-60.167 32.334 -81.5 59.001s-36.833 60.5 -46.5 101.5s-14.5 90.167 -14.5 147.5c0 93.333 19.5 164.166 58.5 212.499s97.833 72.5 176.5 72.5c33.333 0 63.833 -5.16699 91.5 -15.5s51.5 -26.5 71.5 -48.5
s35.5 -50.167 46.5 -84.5s16.5 -75.5 16.5 -123.5c0 -4.66699 -0.166992 -9.83398 -0.5 -15.501s-0.833008 -10.5 -1.5 -14.5h-397c0.666992 -47.333 5.16699 -87.166 13.5 -119.499s21 -58.333 38 -78s38.333 -33.834 64 -42.501s56.167 -13 91.5 -13
c31.333 0 60 3.66699 86 11s51.667 17.666 77 30.999l8 -53c-25.333 -14.667 -52.5 -26 -81.5 -34s-60.833 -12 -95.5 -12zM462 341.002c-0.666992 37.333 -5.33301 69.001 -14 95.001s-20.5 47.167 -35.5 63.5s-32.667 28.166 -53 35.499s-42.833 11 -67.5 11
c-58.667 0 -101.5 -17 -128.5 -51s-42.167 -85.333 -45.5 -154h344zM401.001 807.003l-110 -142h-50l80 142h80z" />
    <glyph glyph-name="odieresis" horiz-adv-x="609" 
d="M552 294c0 -55.333 -4.66504 -102.5 -13.998 -141.5s-24 -70.667 -44 -95s-45.5 -42.166 -76.5 -53.499s-68.167 -17 -111.5 -17s-80.5 5.66699 -111.5 17s-56.833 29.166 -77.5 53.499s-35.834 56 -45.501 95s-14.5 86.167 -14.5 141.5c0 54.667 5 101.334 15 140.001
s25.167 70.334 45.5 95.001s46.166 42.667 77.499 54s68.333 17 111 17c43.333 0 80.5 -5.66699 111.5 -17s56.5 -29.333 76.5 -54s34.667 -56.334 44 -95.001s14 -85.334 14 -140.001zM120.002 294c0 -46 3.5 -85.168 10.5 -117.501s18 -58.666 33 -78.999
s34.167 -35 57.5 -44s51.666 -13.5 84.999 -13.5c32.667 0 60.667 4.66699 84 14s42.333 24 57 44s25.334 46.167 32.001 78.5s10 71.5 10 117.5s-3.33301 85 -10 117s-17.334 58 -32.001 78s-33.667 34.5 -57 43.5s-51.333 13.5 -84 13.5
c-33.333 0 -61.666 -4.5 -84.999 -13.5s-42.5 -23.5 -57.5 -43.5s-26 -46 -33 -78s-10.5 -71 -10.5 -117zM265.002 755.999c0 -25.333 -11.667 -38 -35 -38c-11.333 0 -20 2.83301 -26 8.5s-9 15.5 -9 29.5c0 12 3 21.5 9 28.5s14.667 10.5 26 10.5c23.333 0 35 -13 35 -39z
M414.002 755.999c0 -25.333 -11.667 -38 -35 -38c-11.333 0 -20 2.83301 -26 8.5s-9 15.5 -9 29.5c0 12 3 21.5 9 28.5s14.667 10.5 26 10.5c23.333 0 35 -13 35 -39z" />
    <glyph glyph-name="yacute" horiz-adv-x="630" 
d="M190 -105c24 0 44.666 6.00098 61.999 18.001s33.333 34.667 48 68l4 13l-262 596h73l190 -461l30 -75h3l24 77l158 459h67l-225 -612c-20 -50.667 -43 -85.5 -69 -104.5s-57 -28.5 -93 -28.5c-32 0 -60.667 6.33301 -86 19l8 49
c11.333 -6.66699 22.833 -11.334 34.5 -14.001s22.834 -4 33.501 -4zM418.999 807.001l-110 -142h-50l80 142h80z" />
    <glyph glyph-name="thorn" horiz-adv-x="628" 
d="M571 296c0 -56 -5.16992 -103.499 -15.5029 -142.499s-25.5 -70.833 -45.5 -95.5s-44.167 -42.5 -72.5 -53.5s-60.5 -16.5 -96.5 -16.5c-34.667 0 -67.167 5.66699 -97.5 17s-56.5 30.333 -78.5 57l-2 -1l1 -81v-124h-63v940l63 4v-196l-1 -80l2 -1
c21.333 24 47.833 42.833 79.5 56.5s66.834 20.5 105.501 20.5c34.667 0 65.834 -5 93.501 -15s50.834 -26.833 69.501 -50.5s33 -54.834 43 -93.501s15 -87 15 -145zM505.997 296.001c0 48 -3.83008 87.8301 -11.4971 119.497s-18.834 56.834 -33.501 75.501
s-32.834 31.834 -54.501 39.501s-46.5 11.5 -74.5 11.5c-74.667 0 -130.667 -27.333 -168 -82v-332c13.333 -22.667 33.166 -42.667 59.499 -60s60.5 -26 102.5 -26c26.667 0 51 3.83301 73 11.5s41 21 57 40s28.333 44.833 37 77.5s13 74.334 13 125.001z" />
    <glyph glyph-name="ydieresis" horiz-adv-x="630" 
d="M190 -105c24 0 44.666 6.00098 61.999 18.001s33.333 34.667 48 68l4 13l-262 596h73l190 -461l30 -75h3l24 77l158 459h67l-225 -612c-20 -50.667 -43 -85.5 -69 -104.5s-57 -28.5 -93 -28.5c-32 0 -60.667 6.33301 -86 19l8 49
c11.333 -6.66699 22.833 -11.334 34.5 -14.001s22.834 -4 33.501 -4zM275.999 756.001c0 -25.333 -11.667 -38 -35 -38c-11.333 0 -20 2.83301 -26 8.5s-9 15.5 -9 29.5c0 12 3 21.5 9 28.5s14.667 10.5 26 10.5c23.333 0 35 -13 35 -39zM424.999 756.001
c0 -25.333 -11.667 -38 -35 -38c-11.333 0 -20 2.83301 -26 8.5s-9 15.5 -9 29.5c0 12 3 21.5 9 28.5s14.667 10.5 26 10.5c23.333 0 35 -13 35 -39z" />
    <glyph glyph-name="florin" horiz-adv-x="399" 
d="M6 -145l148.001 685h-63l10 50h63l12 58c9.33301 42 27.666 74.333 54.999 97s64 34 110 34c14 0 27.833 -1.33301 41.5 -4s25.167 -5.66699 34.5 -9l-15 -44c-8 3.33301 -17.333 6 -28 8s-21 3 -31 3c-59.333 0 -95 -28.667 -107 -86l-11 -57h153l-11 -50h-153
l-149 -685h-59z" />
    <glyph glyph-name="circumflex" horiz-adv-x="395" 
d="M225 807l107 -142h-51l-84 113l-82 -113h-51l105 142h56z" />
    <glyph glyph-name="tilde" horiz-adv-x="395" 
d="M62 691c3.33301 32.667 11.833 58.667 25.5 78s31.167 29 52.5 29c14.667 0 27.5 -3.83301 38.5 -11.5s21.333 -16.334 31 -26.001s19.167 -18.334 28.5 -26.001s19.333 -11.5 30 -11.5c20.667 0 35.667 21.333 45 64l33 -1c-3.33301 -33.333 -12 -59.5 -26 -78.5
s-31.667 -28.5 -53 -28.5c-14 0 -26.5 3.83301 -37.5 11.5s-21.333 16.334 -31 26.001s-19 18.334 -28 26.001s-18.833 11.5 -29.5 11.5c-10 0 -19 -5.83301 -27 -17.5s-14.333 -27.167 -19 -46.5z" />
    <glyph glyph-name="cc2" horiz-adv-x="698" 
d="M528 198h-361l-71 -198h-71l285 750h78l285 -750h-74zM322 624l-133 -367h318l-131 367l-25 77h-3zM484 819h-263v37h263v-37z" />
    <glyph glyph-name="caf" horiz-adv-x="308" 
d="M123 0v587l61 5v-592h-61zM261 807l-110 -142h-50l80 142h80z" />
    <glyph glyph-name="cc4" horiz-adv-x="698" 
d="M528 198h-361l-71 -198h-71l285 750h78l285 -750h-74zM322 624l-133 -367h318l-131 367l-25 77h-3zM494 915c0 -38 -11.832 -67.501 -35.499 -88.501s-60.167 -31.5 -109.5 -31.5c-98 0 -147 40 -147 120h48c0 -29.333 9.66699 -50.166 29 -62.499
s42.666 -18.5 69.999 -18.5c28.667 0 52 6 70 18s27 33 27 63h48z" />
    <glyph glyph-name="cc3" horiz-adv-x="568" 
d="M432 83l-3.00098 1.00098c-16 -28 -40.333 -50.5 -73 -67.5s-69.667 -25.5 -111 -25.5c-26.667 0 -51.167 3.5 -73.5 10.5s-41.5 17.833 -57.5 32.5s-28.333 33.667 -37 57s-13 51.666 -13 84.999c0 56.667 17.333 100.167 52 130.5s88.334 45.5 161.001 45.5
c26.667 0 52.834 -2.5 78.501 -7.5s48.5 -11.167 68.5 -18.5v73c0 56 -12.167 94.667 -36.5 116s-62.5 32 -114.5 32c-30.667 0 -59.834 -2.83301 -87.501 -8.5s-54.167 -15.167 -79.5 -28.5l-7 53c56 26 117.333 39 184 39c36 0 66.833 -3.83301 92.5 -11.5
s46.5 -20 62.5 -37s27.833 -39 35.5 -66s11.5 -59.5 11.5 -97.5v-390h-46zM423.999 278.001c-7.33301 5.33301 -23.168 11.332 -47.501 17.999s-54.5 10 -90.5 10c-57.333 0 -99 -11.167 -125 -33.5s-39 -54.166 -39 -95.499c0 -25.333 3.5 -46.5 10.5 -63.5
s16.833 -30.667 29.5 -41s27.334 -17.833 44.001 -22.5s35 -7 55 -7c21.333 0 41.833 3.5 61.5 10.5s37 16 52 27s27 23.5 36 37.5s13.5 28 13.5 42v118zM411.997 722h-263v44h263v-44z" />
    <glyph glyph-name="c00" horiz-adv-x="616" 
d="M95 750h426v-750h-426v750zM477 44v662h-338v-662h338z" />
    </font>
</defs>
</svg>
